<?xml version="1.0" standalone="no"?>
<!DOCTYPE svg PUBLIC "-//W3C//DTD SVG 1.1//EN"
  "http://www.w3.org/Graphics/SVG/1.1/DTD/svg11.dtd">
<svg width="19mm" height="28.001983642578125mm" viewBox="-335.8999938964844 -439.45098876953114 19 28.001983642578125" xmlns="http://www.w3.org/2000/svg" version="1.1">
	<title>svgOutput</title>
	<desc>made with tinkercad</desc>
<path d="M -317.8999938964844 -413.49224853515614 L -318.6000061035156 -412.79229736328114 L -318.9433288574219 -412.449005126953 L -320.6000061035156 -412.449005126953 L -330.0979919433594 -412.449005126953 L -330.0979919433594 -413.699005126953 L -333.1029968261719 -413.699005126953 L -333.1029968261719 -412.695587158203 L -334.10650634765625 -413.699005126953 L -334.8999938964844 -414.492462158203 L -334.8999938964844 -414.6140136718749 L -320.6000061035156 -414.6140136718749 L -319.89801025390625 -414.6140136718749 L -319.89801025390625 -420.7499999999999 L -320.6000061035156 -420.7499999999999 L -320.6000061035156 -430.14999389648426 L -319.89801025390625 -430.14999389648426 L -319.89801025390625 -436.2860107421874 L -320.6000061035156 -436.2860107421874 L -334.8999938964844 -436.2860107421874 L -334.8999938964844 -436.40756225585926 L -334.10650634765625 -437.20098876953114 L -333.1029968261719 -438.20440673828114 L -333.1029968261719 -437.20098876953114 L -330.0979919433594 -437.20098876953114 L -330.0979919433594 -438.45098876953114 L -321.45599365234375 -438.45098876953114 L -320.6000061035156 -438.45098876953114 L -318.9433288574219 -438.45098876953114 L -318.6000061035156 -438.107696533203 L -317.8999938964844 -437.407745361328 L -317.8999938964844 -436.2860107421874 L -317.8999938964844 -414.6140136718749 L -317.8999938964844 -413.49224853515614 z" fill="none" stroke="rgb(255,0,0)" stroke-width="0.001mm" />
</svg>