999
"DXF R12 Output" (www.mydxf.blogspot.com)
 0 
SECTION
 2 
HEADER
 9 
$ACADVER
 1 
AC1009
 9 
$EXTMIN
 10 
 0 
 20 
 0 
 9 
$EXTMAX
 10 
 8.5 
 20 
 11 
 0 
ENDSEC
 0 
SECTION
 2 
ENTITIES
0
POLYLINE
8
Layer 1
62
10
70
0
10
0.000000
20
0.000000
66
1
0
VERTEX
8
Layer 1
10
-317.899994
20
441.494249
70
0
0
VERTEX
8
Layer 1
10
-318.600006
20
440.794297
70
0
0
VERTEX
8
Layer 1
10
-318.943329
20
440.451005
70
0
0
VERTEX
8
Layer 1
10
-320.600006
20
440.451005
70
0
0
VERTEX
8
Layer 1
10
-330.097992
20
440.451005
70
0
0
VERTEX
8
Layer 1
10
-330.097992
20
441.701005
70
0
0
VERTEX
8
Layer 1
10
-333.102997
20
441.701005
70
0
0
VERTEX
8
Layer 1
10
-333.102997
20
440.697587
70
0
0
VERTEX
8
Layer 1
10
-334.106506
20
441.701005
70
0
0
VERTEX
8
Layer 1
10
-334.899994
20
442.494462
70
0
0
VERTEX
8
Layer 1
10
-334.899994
20
442.616014
70
0
0
VERTEX
8
Layer 1
10
-320.600006
20
442.616014
70
0
0
VERTEX
8
Layer 1
10
-319.898010
20
442.616014
70
0
0
VERTEX
8
Layer 1
10
-319.898010
20
448.752000
70
0
0
VERTEX
8
Layer 1
10
-320.600006
20
448.752000
70
0
0
VERTEX
8
Layer 1
10
-320.600006
20
458.151994
70
0
0
VERTEX
8
Layer 1
10
-319.898010
20
458.151994
70
0
0
VERTEX
8
Layer 1
10
-319.898010
20
464.288011
70
0
0
VERTEX
8
Layer 1
10
-320.600006
20
464.288011
70
0
0
VERTEX
8
Layer 1
10
-334.899994
20
464.288011
70
0
0
VERTEX
8
Layer 1
10
-334.899994
20
464.409562
70
0
0
VERTEX
8
Layer 1
10
-334.106506
20
465.202989
70
0
0
VERTEX
8
Layer 1
10
-333.102997
20
466.206407
70
0
0
VERTEX
8
Layer 1
10
-333.102997
20
465.202989
70
0
0
VERTEX
8
Layer 1
10
-330.097992
20
465.202989
70
0
0
VERTEX
8
Layer 1
10
-330.097992
20
466.452989
70
0
0
VERTEX
8
Layer 1
10
-321.455994
20
466.452989
70
0
0
VERTEX
8
Layer 1
10
-320.600006
20
466.452989
70
0
0
VERTEX
8
Layer 1
10
-318.943329
20
466.452989
70
0
0
VERTEX
8
Layer 1
10
-318.600006
20
466.109697
70
0
0
VERTEX
8
Layer 1
10
-317.899994
20
465.409745
70
0
0
VERTEX
8
Layer 1
10
-317.899994
20
464.288011
70
0
0
VERTEX
8
Layer 1
10
-317.899994
20
442.616014
70
0
0
VERTEX
8
Layer 1
10
-317.899994
20
441.494249
70
0
0
VERTEX
8
Layer 1
10
-317.899994
20
441.494249
70
0
0
SEQEND
8
Layer 1
 0 
ENDSEC
 0 
EOF