<?xml version="1.0" standalone="no"?>
<!DOCTYPE svg PUBLIC "-//W3C//DTD SVG 1.1//EN"
  "http://www.w3.org/Graphics/SVG/1.1/DTD/svg11.dtd">
<svg width="23mm" height="66.10700988769528mm" viewBox="-508.74700927734375 129.86999511718747 23 66.10700988769528" xmlns="http://www.w3.org/2000/svg" version="1.1">
	<title>svgOutput</title>
	<desc>made with tinkercad</desc>
<path d="M -486.84600830078125 190.78260803222653 L -486.84600830078125 190.7934417724609 L -486.84600830078125 190.84289550781247 L -486.84600830078125 191.4700012207031 L -486.84600830078125 193.42251586914057 L -487.33099365234375 193.91699218749994 L -488.3706970214844 194.97700500488276 L -498.8836975097656 194.97700500488276 L -506.12255859375 194.97700500488276 L -507.6470031738281 193.42289733886713 L -507.6470031738281 191.4700012207031 L -507.6470031738281 190.84289550781247 L -507.6470031738281 190.7934417724609 L -507.6470031738281 190.78260803222653 L -507.60699462890625 190.73800659179685 L -507.4930114746094 190.58000183105466 L -507.425048828125 190.46400451660153 L -507.3940124511719 190.4109954833984 L -507.3110046386719 190.2339935302734 L -507.2460021972656 190.04899597167966 L -507.20001220703125 189.85800170898435 L -507.1709899902344 189.66400146484372 L -507.1619873046875 189.46699523925778 L -507.1709899902344 189.27099609374997 L -507.20001220703125 189.07699584960935 L -507.2460021972656 188.88600158691403 L -507.3110046386719 188.70100402832028 L -507.3940124511719 188.52299499511716 L -507.4570617675781 188.4160003662109 L -507.4930114746094 188.35499572753903 L -507.60699462890625 188.1970062255859 L -507.73699951171875 188.05099487304685 L -507.74700927734375 188.04170227050778 L -507.74700927734375 188.01864624023435 L -507.74700927734375 187.97767639160153 L -507.74700927734375 187.91920471191403 L -507.74700927734375 187.84400939941403 L -507.74700927734375 187.75952148437497 L -507.74700927734375 187.6539154052734 L -507.74700927734375 187.52954101562497 L -507.74700927734375 187.4649963378906 L -507.74700927734375 130.86999511718747 L -507.1619873046875 130.86999511718747 L -487.33099365234375 130.86999511718747 L -486.74700927734375 130.86999511718747 L -486.74700927734375 187.4649963378906 L -486.74700927734375 187.52958679199216 L -486.74700927734375 187.65406799316403 L -486.74700927734375 187.75978088378903 L -486.74700927734375 187.84437561035153 L -486.74700927734375 187.91969299316403 L -486.74700927734375 187.97828674316403 L -486.74700927734375 188.0193939208984 L -486.74700927734375 188.0426330566406 L -486.7560119628906 188.05099487304685 L -486.885986328125 188.1970062255859 L -487 188.35499572753903 L -487.03594970703125 188.4160003662109 L -487.0989990234375 188.52299499511716 L -487.1820068359375 188.70100402832028 L -487.24700927734375 188.88600158691403 L -487.2929992675781 189.07699584960935 L -487.3219909667969 189.27099609374997 L -487.33099365234375 189.46699523925778 L -487.3219909667969 189.66400146484372 L -487.2929992675781 189.85800170898435 L -487.24700927734375 190.04899597167966 L -487.1820068359375 190.2339935302734 L -487.0989990234375 190.4109954833984 L -487.0679626464844 190.46400451660153 L -487 190.58000183105466 L -486.885986328125 190.73800659179685 L -486.84600830078125 190.78260803222653 M -505.2489929199219 136.97399902343747 L -505.2489929199219 137.9750061035156 L -489.2439880371094 137.9750061035156 L -489.2439880371094 136.97399902343747 L -505.2489929199219 136.97399902343747 M -505.2489929199219 139.9750061035156 L -505.2489929199219 140.97599792480466 L -489.2439880371094 140.97599792480466 L -489.2439880371094 139.9750061035156 L -505.2489929199219 139.9750061035156 M -505.2489929199219 142.97700500488278 L -505.2489929199219 143.97700500488278 L -489.2439880371094 143.97700500488278 L -489.2439880371094 142.97700500488278 L -505.2489929199219 142.97700500488278 M -505.2489929199219 145.97799682617185 L -505.2489929199219 146.97799682617185 L -489.2439880371094 146.97799682617185 L -489.2439880371094 145.97799682617185 L -505.2489929199219 145.97799682617185 M -505.2489929199219 148.97900390624997 L -505.2489929199219 149.97900390624997 L -489.2439880371094 149.97900390624997 L -489.2439880371094 148.97900390624997 L -505.2489929199219 148.97900390624997 z" fill="none" stroke="rgb(255,0,0)" stroke-width="0.001mm" />
</svg>