999
"DXF R12 Output" (www.mydxf.blogspot.com)
 0 
SECTION
 2 
HEADER
 9 
$ACADVER
 1 
AC1009
 9 
$EXTMIN
 10 
 0 
 20 
 0 
 9 
$EXTMAX
 10 
 8.5 
 20 
 11 
 0 
ENDSEC
 0 
SECTION
 2 
ENTITIES
0
POLYLINE
8
Layer 1
62
10
70
0
10
0.000000
20
0.000000
66
1
0
VERTEX
8
Layer 1
10
-486.846008
20
-124.675608
70
0
0
VERTEX
8
Layer 1
10
-486.846008
20
-124.686442
70
0
0
VERTEX
8
Layer 1
10
-486.846008
20
-124.735896
70
0
0
VERTEX
8
Layer 1
10
-486.846008
20
-125.363001
70
0
0
VERTEX
8
Layer 1
10
-486.846008
20
-127.315516
70
0
0
VERTEX
8
Layer 1
10
-487.330994
20
-127.809992
70
0
0
VERTEX
8
Layer 1
10
-488.370697
20
-128.870005
70
0
0
VERTEX
8
Layer 1
10
-498.883698
20
-128.870005
70
0
0
VERTEX
8
Layer 1
10
-506.122559
20
-128.870005
70
0
0
VERTEX
8
Layer 1
10
-507.647003
20
-127.315897
70
0
0
VERTEX
8
Layer 1
10
-507.647003
20
-125.363001
70
0
0
VERTEX
8
Layer 1
10
-507.647003
20
-124.735896
70
0
0
VERTEX
8
Layer 1
10
-507.647003
20
-124.686442
70
0
0
VERTEX
8
Layer 1
10
-507.647003
20
-124.675608
70
0
0
VERTEX
8
Layer 1
10
-507.606995
20
-124.631007
70
0
0
VERTEX
8
Layer 1
10
-507.493011
20
-124.473002
70
0
0
VERTEX
8
Layer 1
10
-507.425049
20
-124.357005
70
0
0
VERTEX
8
Layer 1
10
-507.394012
20
-124.303995
70
0
0
VERTEX
8
Layer 1
10
-507.311005
20
-124.126994
70
0
0
VERTEX
8
Layer 1
10
-507.246002
20
-123.941996
70
0
0
VERTEX
8
Layer 1
10
-507.200012
20
-123.751002
70
0
0
VERTEX
8
Layer 1
10
-507.170990
20
-123.557001
70
0
0
VERTEX
8
Layer 1
10
-507.161987
20
-123.359995
70
0
0
VERTEX
8
Layer 1
10
-507.170990
20
-123.163996
70
0
0
VERTEX
8
Layer 1
10
-507.200012
20
-122.969996
70
0
0
VERTEX
8
Layer 1
10
-507.246002
20
-122.779002
70
0
0
VERTEX
8
Layer 1
10
-507.311005
20
-122.594004
70
0
0
VERTEX
8
Layer 1
10
-507.394012
20
-122.415995
70
0
0
VERTEX
8
Layer 1
10
-507.457062
20
-122.309000
70
0
0
VERTEX
8
Layer 1
10
-507.493011
20
-122.247996
70
0
0
VERTEX
8
Layer 1
10
-507.606995
20
-122.090006
70
0
0
VERTEX
8
Layer 1
10
-507.737000
20
-121.943995
70
0
0
VERTEX
8
Layer 1
10
-507.747009
20
-121.934702
70
0
0
VERTEX
8
Layer 1
10
-507.747009
20
-121.911646
70
0
0
VERTEX
8
Layer 1
10
-507.747009
20
-121.870676
70
0
0
VERTEX
8
Layer 1
10
-507.747009
20
-121.812205
70
0
0
VERTEX
8
Layer 1
10
-507.747009
20
-121.737009
70
0
0
VERTEX
8
Layer 1
10
-507.747009
20
-121.652521
70
0
0
VERTEX
8
Layer 1
10
-507.747009
20
-121.546915
70
0
0
VERTEX
8
Layer 1
10
-507.747009
20
-121.422541
70
0
0
VERTEX
8
Layer 1
10
-507.747009
20
-121.357996
70
0
0
VERTEX
8
Layer 1
10
-507.747009
20
-64.762995
70
0
0
VERTEX
8
Layer 1
10
-507.161987
20
-64.762995
70
0
0
VERTEX
8
Layer 1
10
-487.330994
20
-64.762995
70
0
0
VERTEX
8
Layer 1
10
-486.747009
20
-64.762995
70
0
0
VERTEX
8
Layer 1
10
-486.747009
20
-121.357996
70
0
0
VERTEX
8
Layer 1
10
-486.747009
20
-121.422587
70
0
0
VERTEX
8
Layer 1
10
-486.747009
20
-121.547068
70
0
0
VERTEX
8
Layer 1
10
-486.747009
20
-121.652781
70
0
0
VERTEX
8
Layer 1
10
-486.747009
20
-121.737376
70
0
0
VERTEX
8
Layer 1
10
-486.747009
20
-121.812693
70
0
0
VERTEX
8
Layer 1
10
-486.747009
20
-121.871287
70
0
0
VERTEX
8
Layer 1
10
-486.747009
20
-121.912394
70
0
0
VERTEX
8
Layer 1
10
-486.747009
20
-121.935633
70
0
0
VERTEX
8
Layer 1
10
-486.756012
20
-121.943995
70
0
0
VERTEX
8
Layer 1
10
-486.885986
20
-122.090006
70
0
0
VERTEX
8
Layer 1
10
-487.000000
20
-122.247996
70
0
0
VERTEX
8
Layer 1
10
-487.035950
20
-122.309000
70
0
0
VERTEX
8
Layer 1
10
-487.098999
20
-122.415995
70
0
0
VERTEX
8
Layer 1
10
-487.182007
20
-122.594004
70
0
0
VERTEX
8
Layer 1
10
-487.247009
20
-122.779002
70
0
0
VERTEX
8
Layer 1
10
-487.292999
20
-122.969996
70
0
0
VERTEX
8
Layer 1
10
-487.321991
20
-123.163996
70
0
0
VERTEX
8
Layer 1
10
-487.330994
20
-123.359995
70
0
0
VERTEX
8
Layer 1
10
-487.321991
20
-123.557001
70
0
0
VERTEX
8
Layer 1
10
-487.292999
20
-123.751002
70
0
0
VERTEX
8
Layer 1
10
-487.247009
20
-123.941996
70
0
0
VERTEX
8
Layer 1
10
-487.182007
20
-124.126994
70
0
0
VERTEX
8
Layer 1
10
-487.098999
20
-124.303995
70
0
0
VERTEX
8
Layer 1
10
-487.067963
20
-124.357005
70
0
0
VERTEX
8
Layer 1
10
-487.000000
20
-124.473002
70
0
0
VERTEX
8
Layer 1
10
-486.885986
20
-124.631007
70
0
0
VERTEX
8
Layer 1
10
-486.846008
20
-124.675608
70
0
0
SEQEND
8
Layer 1
0
POLYLINE
8
Layer 1
62
10
70
0
10
0.000000
20
0.000000
66
1
0
VERTEX
8
Layer 1
10
-505.248993
20
-70.866999
70
0
0
VERTEX
8
Layer 1
10
-505.248993
20
-71.868006
70
0
0
VERTEX
8
Layer 1
10
-489.243988
20
-71.868006
70
0
0
VERTEX
8
Layer 1
10
-489.243988
20
-70.866999
70
0
0
VERTEX
8
Layer 1
10
-505.248993
20
-70.866999
70
0
0
SEQEND
8
Layer 1
0
POLYLINE
8
Layer 1
62
10
70
0
10
0.000000
20
0.000000
66
1
0
VERTEX
8
Layer 1
10
-505.248993
20
-73.868006
70
0
0
VERTEX
8
Layer 1
10
-505.248993
20
-74.868998
70
0
0
VERTEX
8
Layer 1
10
-489.243988
20
-74.868998
70
0
0
VERTEX
8
Layer 1
10
-489.243988
20
-73.868006
70
0
0
VERTEX
8
Layer 1
10
-505.248993
20
-73.868006
70
0
0
SEQEND
8
Layer 1
0
POLYLINE
8
Layer 1
62
10
70
0
10
0.000000
20
0.000000
66
1
0
VERTEX
8
Layer 1
10
-505.248993
20
-76.870005
70
0
0
VERTEX
8
Layer 1
10
-505.248993
20
-77.870005
70
0
0
VERTEX
8
Layer 1
10
-489.243988
20
-77.870005
70
0
0
VERTEX
8
Layer 1
10
-489.243988
20
-76.870005
70
0
0
VERTEX
8
Layer 1
10
-505.248993
20
-76.870005
70
0
0
SEQEND
8
Layer 1
0
POLYLINE
8
Layer 1
62
10
70
0
10
0.000000
20
0.000000
66
1
0
VERTEX
8
Layer 1
10
-505.248993
20
-79.870997
70
0
0
VERTEX
8
Layer 1
10
-505.248993
20
-80.870997
70
0
0
VERTEX
8
Layer 1
10
-489.243988
20
-80.870997
70
0
0
VERTEX
8
Layer 1
10
-489.243988
20
-79.870997
70
0
0
VERTEX
8
Layer 1
10
-505.248993
20
-79.870997
70
0
0
SEQEND
8
Layer 1
0
POLYLINE
8
Layer 1
62
10
70
0
10
0.000000
20
0.000000
66
1
0
VERTEX
8
Layer 1
10
-505.248993
20
-82.872004
70
0
0
VERTEX
8
Layer 1
10
-505.248993
20
-83.872004
70
0
0
VERTEX
8
Layer 1
10
-489.243988
20
-83.872004
70
0
0
VERTEX
8
Layer 1
10
-489.243988
20
-82.872004
70
0
0
VERTEX
8
Layer 1
10
-505.248993
20
-82.872004
70
0
0
VERTEX
8
Layer 1
10
-505.248993
20
-82.872004
70
0
0
SEQEND
8
Layer 1
 0 
ENDSEC
 0 
EOF