999
"DXF R12 Output" (www.mydxf.blogspot.com)
 0 
SECTION
 2 
HEADER
 9 
$ACADVER
 1 
AC1009
 9 
$EXTMIN
 10 
 0 
 20 
 0 
 9 
$EXTMAX
 10 
 8.5 
 20 
 11 
 0 
ENDSEC
 0 
SECTION
 2 
ENTITIES
0
POLYLINE
8
Layer 1
62
10
70
0
10
0.000000
20
0.000000
66
1
0
VERTEX
8
Layer 1
10
-594.138977
20
-101.990997
70
0
0
VERTEX
8
Layer 1
10
-594.150146
20
-101.839996
70
0
0
VERTEX
8
Layer 1
10
-594.260010
20
-100.348007
70
0
0
VERTEX
8
Layer 1
10
-594.299988
20
-98.699997
70
0
0
VERTEX
8
Layer 1
10
-594.260010
20
-97.052994
70
0
0
VERTEX
8
Layer 1
10
-594.138977
20
-95.408997
70
0
0
VERTEX
8
Layer 1
10
-593.937012
20
-93.774002
70
0
0
VERTEX
8
Layer 1
10
-593.655029
20
-92.149994
70
0
0
VERTEX
8
Layer 1
10
-593.294006
20
-90.542007
70
0
0
VERTEX
8
Layer 1
10
-592.854004
20
-88.953003
70
0
0
VERTEX
8
Layer 1
10
-592.336975
20
-87.389008
70
0
0
VERTEX
8
Layer 1
10
-591.744019
20
-85.850998
70
0
0
VERTEX
8
Layer 1
10
-591.568909
20
-85.455994
70
0
0
VERTEX
8
Layer 1
10
-591.075989
20
-84.343994
70
0
0
VERTEX
8
Layer 1
10
-590.335022
20
-82.871994
70
0
0
VERTEX
8
Layer 1
10
-589.823975
20
-81.969574
70
0
0
VERTEX
8
Layer 1
10
-589.523010
20
-81.438004
70
0
0
VERTEX
8
Layer 1
10
-588.642029
20
-80.046005
70
0
0
VERTEX
8
Layer 1
10
-587.692993
20
-78.699005
70
0
0
VERTEX
8
Layer 1
10
-586.679016
20
-77.399002
70
0
0
VERTEX
8
Layer 1
10
-585.726990
20
-76.296738
70
0
0
VERTEX
8
Layer 1
10
-585.601990
20
-76.151993
70
0
0
VERTEX
8
Layer 1
10
-584.726013
20
-75.231277
70
0
0
VERTEX
8
Layer 1
10
-584.466003
20
-74.957993
70
0
0
VERTEX
8
Layer 1
10
-583.271973
20
-73.822006
70
0
0
VERTEX
8
Layer 1
10
-582.724976
20
-73.349945
70
0
0
VERTEX
8
Layer 1
10
-582.023987
20
-72.744995
70
0
0
VERTEX
8
Layer 1
10
-581.724976
20
-72.511597
70
0
0
VERTEX
8
Layer 1
10
-580.724976
20
-71.731003
70
0
0
VERTEX
8
Layer 1
10
-579.723999
20
-71.025772
70
0
0
VERTEX
8
Layer 1
10
-579.377991
20
-70.781998
70
0
0
VERTEX
8
Layer 1
10
-578.723022
20
-70.367752
70
0
0
VERTEX
8
Layer 1
10
-577.984985
20
-69.901001
70
0
0
VERTEX
8
Layer 1
10
-576.721985
20
-69.184952
70
0
0
VERTEX
8
Layer 1
10
-576.551025
20
-69.087997
70
0
0
VERTEX
8
Layer 1
10
-576.519226
20
-69.072006
70
0
0
VERTEX
8
Layer 1
10
-575.780212
20
-68.699997
70
0
0
VERTEX
8
Layer 1
10
-573.440002
20
-68.699997
70
0
0
VERTEX
8
Layer 1
10
-557.056030
20
-68.699997
70
0
0
VERTEX
8
Layer 1
10
-551.625977
20
-68.699997
70
0
0
VERTEX
8
Layer 1
10
-551.334290
20
-68.699997
70
0
0
VERTEX
8
Layer 1
10
-551.278198
20
-68.699997
70
0
0
VERTEX
8
Layer 1
10
-551.260620
20
-68.699997
70
0
0
VERTEX
8
Layer 1
10
-551.171021
20
-68.817001
70
0
0
VERTEX
8
Layer 1
10
-551.039978
20
-68.960007
70
0
0
VERTEX
8
Layer 1
10
-550.913269
20
-69.072006
70
0
0
VERTEX
8
Layer 1
10
-550.911987
20
-69.073090
70
0
0
VERTEX
8
Layer 1
10
-550.893982
20
-69.089005
70
0
0
VERTEX
8
Layer 1
10
-550.736023
20
-69.203995
70
0
0
VERTEX
8
Layer 1
10
-550.567993
20
-69.302994
70
0
0
VERTEX
8
Layer 1
10
-550.390015
20
-69.384995
70
0
0
VERTEX
8
Layer 1
10
-550.205017
20
-69.449997
70
0
0
VERTEX
8
Layer 1
10
-550.013977
20
-69.496994
70
0
0
VERTEX
8
Layer 1
10
-549.820007
20
-69.524994
70
0
0
VERTEX
8
Layer 1
10
-549.624023
20
-69.535004
70
0
0
VERTEX
8
Layer 1
10
-549.427002
20
-69.524994
70
0
0
VERTEX
8
Layer 1
10
-549.232971
20
-69.496994
70
0
0
VERTEX
8
Layer 1
10
-549.041992
20
-69.449997
70
0
0
VERTEX
8
Layer 1
10
-548.864014
20
-69.387466
70
0
0
VERTEX
8
Layer 1
10
-548.856995
20
-69.384995
70
0
0
VERTEX
8
Layer 1
10
-548.679993
20
-69.302994
70
0
0
VERTEX
8
Layer 1
10
-548.510986
20
-69.203995
70
0
0
VERTEX
8
Layer 1
10
-548.353027
20
-69.089005
70
0
0
VERTEX
8
Layer 1
10
-548.333862
20
-69.072006
70
0
0
VERTEX
8
Layer 1
10
-548.208008
20
-68.960007
70
0
0
VERTEX
8
Layer 1
10
-548.075989
20
-68.817001
70
0
0
VERTEX
8
Layer 1
10
-547.987122
20
-68.699997
70
0
0
VERTEX
8
Layer 1
10
-547.981506
20
-68.699997
70
0
0
VERTEX
8
Layer 1
10
-547.957153
20
-68.699997
70
0
0
VERTEX
8
Layer 1
10
-547.910461
20
-68.699997
70
0
0
VERTEX
8
Layer 1
10
-547.847229
20
-68.699997
70
0
0
VERTEX
8
Layer 1
10
-547.773682
20
-68.699997
70
0
0
VERTEX
8
Layer 1
10
-547.679443
20
-68.699997
70
0
0
VERTEX
8
Layer 1
10
-547.620972
20
-68.699997
70
0
0
VERTEX
8
Layer 1
10
-545.666748
20
-68.699997
70
0
0
VERTEX
8
Layer 1
10
-544.927795
20
-69.072006
70
0
0
VERTEX
8
Layer 1
10
-544.895996
20
-69.087997
70
0
0
VERTEX
8
Layer 1
10
-544.107544
20
-69.535004
70
0
0
VERTEX
8
Layer 1
10
-543.461975
20
-69.901001
70
0
0
VERTEX
8
Layer 1
10
-542.068970
20
-70.781998
70
0
0
VERTEX
8
Layer 1
10
-540.721985
20
-71.731003
70
0
0
VERTEX
8
Layer 1
10
-539.422974
20
-72.744995
70
0
0
VERTEX
8
Layer 1
10
-538.174988
20
-73.822006
70
0
0
VERTEX
8
Layer 1
10
-536.981018
20
-74.957993
70
0
0
VERTEX
8
Layer 1
10
-535.844971
20
-76.151993
70
0
0
VERTEX
8
Layer 1
10
-534.768005
20
-77.399002
70
0
0
VERTEX
8
Layer 1
10
-533.755005
20
-78.699005
70
0
0
VERTEX
8
Layer 1
10
-532.806030
20
-80.046005
70
0
0
VERTEX
8
Layer 1
10
-531.924011
20
-81.438004
70
0
0
VERTEX
8
Layer 1
10
-531.112000
20
-82.871994
70
0
0
VERTEX
8
Layer 1
10
-530.723999
20
-83.642761
70
0
0
VERTEX
8
Layer 1
10
-530.723999
20
-85.455994
70
0
0
VERTEX
8
Layer 1
10
-530.723999
20
-101.839996
70
0
0
VERTEX
8
Layer 1
10
-530.723999
20
-113.757233
70
0
0
VERTEX
8
Layer 1
10
-531.112000
20
-114.528000
70
0
0
VERTEX
8
Layer 1
10
-531.924011
20
-115.962006
70
0
0
VERTEX
8
Layer 1
10
-532.806030
20
-117.354004
70
0
0
VERTEX
8
Layer 1
10
-533.418457
20
-118.223999
70
0
0
VERTEX
8
Layer 1
10
-533.755005
20
-118.701996
70
0
0
VERTEX
8
Layer 1
10
-534.768005
20
-120.001007
70
0
0
VERTEX
8
Layer 1
10
-535.844971
20
-121.248993
70
0
0
VERTEX
8
Layer 1
10
-536.981018
20
-122.442001
70
0
0
VERTEX
8
Layer 1
10
-538.174988
20
-123.578995
70
0
0
VERTEX
8
Layer 1
10
-539.422974
20
-124.654999
70
0
0
VERTEX
8
Layer 1
10
-540.671997
20
-125.629974
70
0
0
VERTEX
8
Layer 1
10
-540.721985
20
-125.669006
70
0
0
VERTEX
8
Layer 1
10
-542.068970
20
-126.617996
70
0
0
VERTEX
8
Layer 1
10
-543.461975
20
-127.500000
70
0
0
VERTEX
8
Layer 1
10
-544.895996
20
-128.311996
70
0
0
VERTEX
8
Layer 1
10
-545.666748
20
-128.699997
70
0
0
VERTEX
8
Layer 1
10
-547.620972
20
-128.699997
70
0
0
VERTEX
8
Layer 1
10
-547.679749
20
-128.699997
70
0
0
VERTEX
8
Layer 1
10
-547.773132
20
-128.699997
70
0
0
VERTEX
8
Layer 1
10
-547.847229
20
-128.699997
70
0
0
VERTEX
8
Layer 1
10
-547.910461
20
-128.699997
70
0
0
VERTEX
8
Layer 1
10
-547.957153
20
-128.699997
70
0
0
VERTEX
8
Layer 1
10
-547.982239
20
-128.699997
70
0
0
VERTEX
8
Layer 1
10
-547.987671
20
-128.699997
70
0
0
VERTEX
8
Layer 1
10
-548.075989
20
-128.582993
70
0
0
VERTEX
8
Layer 1
10
-548.208008
20
-128.440994
70
0
0
VERTEX
8
Layer 1
10
-548.353027
20
-128.311005
70
0
0
VERTEX
8
Layer 1
10
-548.510986
20
-128.197006
70
0
0
VERTEX
8
Layer 1
10
-548.679993
20
-128.098007
70
0
0
VERTEX
8
Layer 1
10
-548.856995
20
-128.014999
70
0
0
VERTEX
8
Layer 1
10
-548.864014
20
-128.012543
70
0
0
VERTEX
8
Layer 1
10
-549.041992
20
-127.949997
70
0
0
VERTEX
8
Layer 1
10
-549.232971
20
-127.904007
70
0
0
VERTEX
8
Layer 1
10
-549.427002
20
-127.875000
70
0
0
VERTEX
8
Layer 1
10
-549.624023
20
-127.865997
70
0
0
VERTEX
8
Layer 1
10
-549.820007
20
-127.875000
70
0
0
VERTEX
8
Layer 1
10
-550.013977
20
-127.904007
70
0
0
VERTEX
8
Layer 1
10
-550.205017
20
-127.949997
70
0
0
VERTEX
8
Layer 1
10
-550.390015
20
-128.014999
70
0
0
VERTEX
8
Layer 1
10
-550.567993
20
-128.098007
70
0
0
VERTEX
8
Layer 1
10
-550.736023
20
-128.197006
70
0
0
VERTEX
8
Layer 1
10
-550.893982
20
-128.311005
70
0
0
VERTEX
8
Layer 1
10
-550.911987
20
-128.327026
70
0
0
VERTEX
8
Layer 1
10
-551.039978
20
-128.440994
70
0
0
VERTEX
8
Layer 1
10
-551.171021
20
-128.582993
70
0
0
VERTEX
8
Layer 1
10
-551.260071
20
-128.699997
70
0
0
VERTEX
8
Layer 1
10
-551.278931
20
-128.699997
70
0
0
VERTEX
8
Layer 1
10
-551.330872
20
-128.699997
70
0
0
VERTEX
8
Layer 1
10
-551.625977
20
-128.699997
70
0
0
VERTEX
8
Layer 1
10
-557.056030
20
-128.699997
70
0
0
VERTEX
8
Layer 1
10
-573.440002
20
-128.699997
70
0
0
VERTEX
8
Layer 1
10
-575.780212
20
-128.699997
70
0
0
VERTEX
8
Layer 1
10
-576.551025
20
-128.311996
70
0
0
VERTEX
8
Layer 1
10
-577.984985
20
-127.500000
70
0
0
VERTEX
8
Layer 1
10
-579.377991
20
-126.617996
70
0
0
VERTEX
8
Layer 1
10
-580.724976
20
-125.669006
70
0
0
VERTEX
8
Layer 1
10
-582.023987
20
-124.654999
70
0
0
VERTEX
8
Layer 1
10
-583.271973
20
-123.578995
70
0
0
VERTEX
8
Layer 1
10
-584.466003
20
-122.442001
70
0
0
VERTEX
8
Layer 1
10
-585.601990
20
-121.248993
70
0
0
VERTEX
8
Layer 1
10
-586.679016
20
-120.001007
70
0
0
VERTEX
8
Layer 1
10
-587.692993
20
-118.701996
70
0
0
VERTEX
8
Layer 1
10
-588.029541
20
-118.223999
70
0
0
VERTEX
8
Layer 1
10
-588.642029
20
-117.354004
70
0
0
VERTEX
8
Layer 1
10
-589.523010
20
-115.962006
70
0
0
VERTEX
8
Layer 1
10
-589.823975
20
-115.430435
70
0
0
VERTEX
8
Layer 1
10
-590.335022
20
-114.528000
70
0
0
VERTEX
8
Layer 1
10
-591.075989
20
-113.056000
70
0
0
VERTEX
8
Layer 1
10
-591.744019
20
-111.548996
70
0
0
VERTEX
8
Layer 1
10
-592.336975
20
-110.011993
70
0
0
VERTEX
8
Layer 1
10
-592.854004
20
-108.447006
70
0
0
VERTEX
8
Layer 1
10
-593.294006
20
-106.858994
70
0
0
VERTEX
8
Layer 1
10
-593.655029
20
-105.251007
70
0
0
VERTEX
8
Layer 1
10
-593.937012
20
-103.626999
70
0
0
VERTEX
8
Layer 1
10
-594.138977
20
-101.990997
70
0
0
SEQEND
8
Layer 1
0
POLYLINE
8
Layer 1
62
10
70
0
10
0.000000
20
0.000000
66
1
0
VERTEX
8
Layer 1
10
-581.724976
20
-110.031998
70
0
0
VERTEX
8
Layer 1
10
-581.724976
20
-101.839996
70
0
0
VERTEX
8
Layer 1
10
-581.724976
20
-85.455994
70
0
0
VERTEX
8
Layer 1
10
-581.724976
20
-83.503265
70
0
0
VERTEX
8
Layer 1
10
-582.192993
20
-84.102005
70
0
0
VERTEX
8
Layer 1
10
-582.724976
20
-84.857391
70
0
0
VERTEX
8
Layer 1
10
-582.724976
20
-85.455994
70
0
0
VERTEX
8
Layer 1
10
-582.724976
20
-101.839996
70
0
0
VERTEX
8
Layer 1
10
-582.724976
20
-110.031998
70
0
0
VERTEX
8
Layer 1
10
-582.724976
20
-112.543381
70
0
0
VERTEX
8
Layer 1
10
-582.192993
20
-113.298004
70
0
0
VERTEX
8
Layer 1
10
-581.724976
20
-113.896744
70
0
0
VERTEX
8
Layer 1
10
-581.724976
20
-110.031998
70
0
0
SEQEND
8
Layer 1
0
POLYLINE
8
Layer 1
62
10
70
0
10
0.000000
20
0.000000
66
1
0
VERTEX
8
Layer 1
10
-584.726013
20
-109.035995
70
0
0
VERTEX
8
Layer 1
10
-584.726013
20
-101.839996
70
0
0
VERTEX
8
Layer 1
10
-584.726013
20
-88.364883
70
0
0
VERTEX
8
Layer 1
10
-585.151001
20
-89.322006
70
0
0
VERTEX
8
Layer 1
10
-585.583984
20
-90.445007
70
0
0
VERTEX
8
Layer 1
10
-585.726990
20
-90.878174
70
0
0
VERTEX
8
Layer 1
10
-585.726990
20
-101.839996
70
0
0
VERTEX
8
Layer 1
10
-585.726990
20
-106.522827
70
0
0
VERTEX
8
Layer 1
10
-585.583984
20
-106.955994
70
0
0
VERTEX
8
Layer 1
10
-585.151001
20
-108.078003
70
0
0
VERTEX
8
Layer 1
10
-584.726013
20
-109.035995
70
0
0
SEQEND
8
Layer 1
0
POLYLINE
8
Layer 1
62
10
70
0
10
0.000000
20
0.000000
66
1
0
VERTEX
8
Layer 1
10
-575.721985
20
-114.703003
70
0
0
VERTEX
8
Layer 1
10
-575.721985
20
-101.839996
70
0
0
VERTEX
8
Layer 1
10
-575.721985
20
-82.697998
70
0
0
VERTEX
8
Layer 1
10
-576.721985
20
-82.697998
70
0
0
VERTEX
8
Layer 1
10
-576.721985
20
-101.839996
70
0
0
VERTEX
8
Layer 1
10
-576.721985
20
-114.703003
70
0
0
VERTEX
8
Layer 1
10
-575.721985
20
-114.703003
70
0
0
SEQEND
8
Layer 1
0
POLYLINE
8
Layer 1
62
10
70
0
10
0.000000
20
0.000000
66
1
0
VERTEX
8
Layer 1
10
-578.723022
20
-114.703003
70
0
0
VERTEX
8
Layer 1
10
-578.723022
20
-101.839996
70
0
0
VERTEX
8
Layer 1
10
-578.723022
20
-82.697998
70
0
0
VERTEX
8
Layer 1
10
-579.723999
20
-82.697998
70
0
0
VERTEX
8
Layer 1
10
-579.723999
20
-101.839996
70
0
0
VERTEX
8
Layer 1
10
-579.723999
20
-114.703003
70
0
0
VERTEX
8
Layer 1
10
-578.723022
20
-114.703003
70
0
0
VERTEX
8
Layer 1
10
-578.723022
20
-114.703003
70
0
0
SEQEND
8
Layer 1
 0 
ENDSEC
 0 
EOF