<?xml version="1.0" standalone="no"?>
<!DOCTYPE svg PUBLIC "-//W3C//DTD SVG 1.1//EN"
  "http://www.w3.org/Graphics/SVG/1.1/DTD/svg11.dtd">
<svg width="65.57598876953125mm" height="62mm" viewBox="-595.2999877929688 129.69999694824216 65.57598876953125 62" xmlns="http://www.w3.org/2000/svg" version="1.1">
	<title>svgOutput</title>
	<desc>made with tinkercad</desc>
<path d="M -594.1389770507812 163.9909973144531 L -594.150146484375 163.8399963378906 L -594.260009765625 162.3480072021484 L -594.2999877929688 160.69999694824216 L -594.260009765625 159.05299377441403 L -594.1389770507812 157.40899658203122 L -593.93701171875 155.77400207519528 L -593.655029296875 154.14999389648435 L -593.2940063476562 152.54200744628903 L -592.85400390625 150.95300292968747 L -592.3369750976562 149.38900756835935 L -591.7440185546875 147.85099792480466 L -591.5689086914062 147.45599365234372 L -591.0759887695312 146.34399414062497 L -590.3350219726562 144.87199401855466 L -589.823974609375 143.96957397460935 L -589.5230102539062 143.43800354003903 L -588.6420288085938 142.0460052490234 L -587.6929931640625 140.6990051269531 L -586.6790161132812 139.39900207519528 L -585.7269897460938 138.2967376708984 L -585.6019897460938 138.15199279785153 L -584.7260131835938 137.23127746582028 L -584.4660034179688 136.9579925537109 L -583.27197265625 135.8220062255859 L -582.7249755859375 135.34994506835935 L -582.0239868164062 134.74499511718747 L -581.7249755859375 134.51159667968747 L -580.7249755859375 133.73100280761716 L -579.7239990234375 133.02577209472653 L -579.3779907226562 132.78199768066403 L -578.7230224609375 132.36775207519528 L -577.9849853515625 131.90100097656247 L -576.7219848632812 131.18495178222653 L -576.551025390625 131.0879974365234 L -576.5192260742188 131.0720062255859 L -575.7802124023438 130.69999694824216 L -573.4400024414062 130.69999694824216 L -557.0560302734375 130.69999694824216 L -551.6259765625 130.69999694824216 L -551.3342895507812 130.69999694824216 L -551.2781982421875 130.69999694824216 L -551.2606201171875 130.69999694824216 L -551.1710205078125 130.8170013427734 L -551.0399780273438 130.96000671386716 L -550.9132690429688 131.0720062255859 L -550.9119873046875 131.07308959960935 L -550.8939819335938 131.08900451660153 L -550.7360229492188 131.20399475097653 L -550.5679931640625 131.30299377441403 L -550.3900146484375 131.3849945068359 L -550.2050170898438 131.44999694824216 L -550.0139770507812 131.49699401855466 L -549.8200073242188 131.52499389648435 L -549.6240234375 131.53500366210935 L -549.427001953125 131.52499389648435 L -549.2329711914062 131.49699401855466 L -549.0419921875 131.44999694824216 L -548.864013671875 131.38746643066403 L -548.8569946289062 131.3849945068359 L -548.6799926757812 131.30299377441403 L -548.510986328125 131.20399475097653 L -548.35302734375 131.08900451660153 L -548.3338623046875 131.0720062255859 L -548.2080078125 130.96000671386716 L -548.0759887695312 130.8170013427734 L -547.9871215820312 130.69999694824216 L -547.9815063476562 130.69999694824216 L -547.9571533203125 130.69999694824216 L -547.9104614257812 130.69999694824216 L -547.8472290039062 130.69999694824216 L -547.773681640625 130.69999694824216 L -547.679443359375 130.69999694824216 L -547.6209716796875 130.69999694824216 L -545.666748046875 130.69999694824216 L -544.9277954101562 131.0720062255859 L -544.89599609375 131.0879974365234 L -544.1075439453125 131.53500366210935 L -543.4619750976562 131.90100097656247 L -542.0689697265625 132.78199768066403 L -540.7219848632812 133.73100280761716 L -539.4229736328125 134.74499511718747 L -538.1749877929688 135.8220062255859 L -536.9810180664062 136.9579925537109 L -535.844970703125 138.15199279785153 L -534.7680053710938 139.39900207519528 L -533.7550048828125 140.6990051269531 L -532.8060302734375 142.0460052490234 L -531.9240112304688 143.43800354003903 L -531.1119995117188 144.87199401855466 L -530.7239990234375 145.64276123046872 L -530.7239990234375 147.45599365234372 L -530.7239990234375 163.8399963378906 L -530.7239990234375 175.7572326660156 L -531.1119995117188 176.52799987792966 L -531.9240112304688 177.96200561523435 L -532.8060302734375 179.35400390624997 L -533.41845703125 180.22399902343747 L -533.7550048828125 180.70199584960935 L -534.7680053710938 182.0010070800781 L -535.844970703125 183.24899291992185 L -536.9810180664062 184.4420013427734 L -538.1749877929688 185.57899475097653 L -539.4229736328125 186.65499877929685 L -540.6719970703125 187.62997436523435 L -540.7219848632812 187.66900634765622 L -542.0689697265625 188.61799621582028 L -543.4619750976562 189.49999999999997 L -544.89599609375 190.3119964599609 L -545.666748046875 190.69999694824216 L -547.6209716796875 190.69999694824216 L -547.6797485351562 190.69999694824216 L -547.7731323242188 190.69999694824216 L -547.8472290039062 190.69999694824216 L -547.9104614257812 190.69999694824216 L -547.9571533203125 190.69999694824216 L -547.9822387695312 190.69999694824216 L -547.9876708984375 190.69999694824216 L -548.0759887695312 190.5829925537109 L -548.2080078125 190.44099426269528 L -548.35302734375 190.31100463867185 L -548.510986328125 190.1970062255859 L -548.6799926757812 190.0980072021484 L -548.8569946289062 190.0149993896484 L -548.864013671875 190.01254272460935 L -549.0419921875 189.94999694824216 L -549.2329711914062 189.90400695800778 L -549.427001953125 189.87499999999997 L -549.6240234375 189.8659973144531 L -549.8200073242188 189.87499999999997 L -550.0139770507812 189.90400695800778 L -550.2050170898438 189.94999694824216 L -550.3900146484375 190.0149993896484 L -550.5679931640625 190.0980072021484 L -550.7360229492188 190.1970062255859 L -550.8939819335938 190.31100463867185 L -550.9119873046875 190.32702636718747 L -551.0399780273438 190.44099426269528 L -551.1710205078125 190.5829925537109 L -551.2600708007812 190.69999694824216 L -551.2789306640625 190.69999694824216 L -551.3308715820312 190.69999694824216 L -551.6259765625 190.69999694824216 L -557.0560302734375 190.69999694824216 L -573.4400024414062 190.69999694824216 L -575.7802124023438 190.69999694824216 L -576.551025390625 190.3119964599609 L -577.9849853515625 189.49999999999997 L -579.3779907226562 188.61799621582028 L -580.7249755859375 187.66900634765622 L -582.0239868164062 186.65499877929685 L -583.27197265625 185.57899475097653 L -584.4660034179688 184.4420013427734 L -585.6019897460938 183.24899291992185 L -586.6790161132812 182.0010070800781 L -587.6929931640625 180.70199584960935 L -588.029541015625 180.22399902343747 L -588.6420288085938 179.35400390624997 L -589.5230102539062 177.96200561523435 L -589.823974609375 177.43043518066403 L -590.3350219726562 176.52799987792966 L -591.0759887695312 175.05599975585935 L -591.7440185546875 173.54899597167966 L -592.3369750976562 172.0119934082031 L -592.85400390625 170.4470062255859 L -593.2940063476562 168.8589935302734 L -593.655029296875 167.2510070800781 L -593.93701171875 165.62699890136716 L -594.1389770507812 163.9909973144531 M -581.7249755859375 172.03199768066403 L -581.7249755859375 163.8399963378906 L -581.7249755859375 147.45599365234372 L -581.7249755859375 145.50326538085935 L -582.1929931640625 146.10200500488278 L -582.7249755859375 146.85739135742185 L -582.7249755859375 147.45599365234372 L -582.7249755859375 163.8399963378906 L -582.7249755859375 172.03199768066403 L -582.7249755859375 174.54338073730466 L -582.1929931640625 175.2980041503906 L -581.7249755859375 175.89674377441403 L -581.7249755859375 172.03199768066403 M -584.7260131835938 171.0359954833984 L -584.7260131835938 163.8399963378906 L -584.7260131835938 150.36488342285153 L -585.1510009765625 151.3220062255859 L -585.583984375 152.44500732421872 L -585.7269897460938 152.87817382812497 L -585.7269897460938 163.8399963378906 L -585.7269897460938 168.52282714843747 L -585.583984375 168.95599365234372 L -585.1510009765625 170.07800292968747 L -584.7260131835938 171.0359954833984 M -575.7219848632812 176.70300292968747 L -575.7219848632812 163.8399963378906 L -575.7219848632812 144.69799804687497 L -576.7219848632812 144.69799804687497 L -576.7219848632812 163.8399963378906 L -576.7219848632812 176.70300292968747 L -575.7219848632812 176.70300292968747 M -578.7230224609375 176.70300292968747 L -578.7230224609375 163.8399963378906 L -578.7230224609375 144.69799804687497 L -579.7239990234375 144.69799804687497 L -579.7239990234375 163.8399963378906 L -579.7239990234375 176.70300292968747 L -578.7230224609375 176.70300292968747 z" fill="none" stroke="rgb(255,0,0)" stroke-width="0.001mm" />
</svg>