<?xml version="1.0" standalone="no"?>
<!DOCTYPE svg PUBLIC "-//W3C//DTD SVG 1.1//EN"
  "http://www.w3.org/Graphics/SVG/1.1/DTD/svg11.dtd">
<svg width="170mm" height="171.20916748046872mm" viewBox="101 -84.00008392333983 170 171.20916748046872" xmlns="http://www.w3.org/2000/svg" version="1.1">
	<title>svgOutput</title>
	<desc>made with tinkercad</desc>
<path d="M 102.4020004272461 74.0970001220703 L 102.22744750976562 73.72799682617186 L 102 73.24719238281249 L 102 68.10600280761717 L 102 -64.89700317382811 L 102 -65.53600311279295 L 102 -70.03787994384764 L 102.4020004272461 -70.88700103759764 L 103.10900115966797 -72.06600189208983 L 103.927001953125 -73.1699981689453 L 104.8499984741211 -74.18800354003905 L 105.86900329589844 -75.11100006103514 L 106.9729995727539 -75.92900085449217 L 108.1510009765625 -76.63600158691405 L 108.58341217041016 -76.84020233154295 L 114.00299835205078 -77.12426757812499 L 117.8030014038086 -77.32344818115233 L 124.43800354003906 -77.6712188720703 L 126.83399963378906 -77.7968063354492 L 127.17900085449219 -77.81488800048827 L 143.4429931640625 -78.66736602783202 L 145.1840057373047 -78.7586212158203 L 148.97900390625 -78.95753479003905 L 150.8371124267578 -79.05493164062499 L 156.29800415039062 -79.34116363525389 L 160.30299377441406 -79.55108642578124 L 173.6786346435547 -80.25216674804686 L 226.1046905517578 -83.00008392333983 L 247.6658172607422 -79.96949005126952 L 256.99798583984375 -78.65777587890624 L 261.748046875 -77.99011993408202 L 262.1440124511719 -77.80090332031249 L 262.8489990234375 -77.46399688720702 L 264.02801513671875 -76.74999999999999 L 265.1310119628906 -75.92299652099608 L 266.1499938964844 -74.98999786376952 L 267.072998046875 -73.96099853515624 L 267.8909912109375 -72.8460006713867 L 268.5979919433594 -71.65499877929686 L 269.1860046386719 -70.3990020751953 L 269.64898681640625 -69.09200286865233 L 269.9830017089844 -67.74500274658202 L 270 -67.62879180908202 L 270 -65.60099792480467 L 270 68.80999755859374 L 270 70.83779144287108 L 269.9830017089844 70.95400238037108 L 269.64898681640625 72.30100250244139 L 269.1860046386719 73.60800170898436 L 268.5979919433594 74.86399841308592 L 267.8909912109375 76.05500030517577 L 267.072998046875 77.1699981689453 L 266.1499938964844 78.19899749755858 L 265.1310119628906 79.13200378417967 L 264.02801513671875 79.95899963378905 L 262.8489990234375 80.67299652099608 L 262.1440124511719 81.00990295410155 L 261.748046875 81.19911956787108 L 256.99798583984375 81.8667755126953 L 247.6658172607422 83.17848968505858 L 226.1046905517578 86.20908355712889 L 173.6786346435547 83.46116638183592 L 156.29800415039062 82.55016326904295 L 127.17900085449219 81.02388763427733 L 124.43800354003906 80.88021850585936 L 114.00299835205078 80.33326721191405 L 108.58258056640625 80.04915618896483 L 108.1510009765625 79.84500122070311 L 106.9729995727539 79.13899993896483 L 105.86900329589844 78.3199996948242 L 104.8499984741211 77.39700317382811 L 103.927001953125 76.37899780273436 L 103.10900115966797 75.27500152587889 L 102.4020004272461 74.0970001220703 M 121.03888702392578 8.97200012207031 L 121.2900390625 8.97200012207031 L 122.48101043701172 8.97200012207031 L 122.87999725341797 8.97200012207031 L 124.43800354003906 8.97200012207031 L 124.43800354003906 9.57199954986572 L 124.43800354003906 14.571999549865719 L 127.17900085449219 14.571999549865719 L 143.4429931640625 14.571999549865719 L 143.4429931640625 9.57199954986572 L 143.4429931640625 8.97200012207031 L 143.4429931640625 -6.833000183105467 L 143.4429931640625 -12.932999610900875 L 127.17900085449219 -12.932999610900875 L 126.83399963378906 -12.932999610900875 L 124.43800354003906 -12.932999610900875 L 124.43800354003906 -8.432999610900877 L 124.43800354003906 -7.669104576110838 L 124.43800354003906 -6.833000183105467 L 124.2746353149414 -6.833000183105467 L 123.87893676757812 -6.833000183105467 L 123.5382308959961 -6.833000183105467 L 123.25513458251953 -6.833000183105467 L 123.05525207519531 -6.833000183105467 L 122.94503784179688 -6.833000183105467 L 122.87999725341797 -6.881180286407469 L 122.83300018310547 -6.9159998893737775 L 122.07499694824219 -7.36999988555908 L 121.2770004272461 -7.748000144958494 L 120.44499969482422 -8.045999526977537 L 119.58799743652344 -8.260000228881834 L 118.71399688720703 -8.390000343322752 L 117.83200073242188 -8.432999610900877 L 116.9489974975586 -8.390000343322752 L 116.07499694824219 -8.260000228881834 L 115.21800231933594 -8.045999526977537 L 114.68800354003906 -7.856168270111082 L 114.38600158691406 -7.748000144958494 L 114.00299835205078 -7.566578865051268 L 113.58799743652344 -7.36999988555908 L 112.83000183105469 -6.9159998893737775 L 112.12000274658203 -6.389999866485594 L 111.46600341796875 -5.796000003814696 L 110.87200164794922 -5.142000198364257 L 110.34600067138672 -4.432000160217284 L 109.89199829101562 -3.6740000247955313 L 109.51399993896484 -2.8759999275207515 L 109.21700286865234 -2.043999910354614 L 109.00199890136719 -1.1870000362396236 L 108.87200164794922 -0.3129999935626982 L 108.85674285888672 1.1102230246251565e-16 L 108.8290023803711 0.5690000057220459 L 108.87200164794922 1.4520000219345093 L 109.00199890136719 2.3259999752044673 L 109.21700286865234 3.183000087738036 L 109.51399993896484 4.013999938964843 L 109.89199829101562 4.813000202178954 L 110.34600067138672 5.571000099182128 L 110.87200164794922 6.280000209808348 L 111.46600341796875 6.934999942779539 L 112.12000274658203 7.527999877929686 L 112.83000183105469 8.05500030517578 L 113.58799743652344 8.508999824523924 L 114.00299835205078 8.705578804016112 L 114.38600158691406 8.887000083923338 L 114.68800354003906 8.994805335998533 L 115.21800231933594 9.184000015258787 L 116.07499694824219 9.399000167846678 L 116.9489974975586 9.527999877929686 L 117.83200073242188 9.57199954986572 L 118.71399688720703 9.527999877929686 L 119.58799743652344 9.399000167846678 L 120.44499969482422 9.184000015258787 L 121.03888702392578 8.97200012207031 M 113.86599731445312 -49.01800155639647 L 113.81500244140625 -48.76100158691405 L 113.7979965209961 -48.499999999999986 L 113.81500244140625 -48.23899841308592 L 113.86599731445312 -47.98199844360351 L 113.94999694824219 -47.73400115966796 L 114.00299835205078 -47.626628875732415 L 114.06600189208984 -47.4990005493164 L 114.21099853515625 -47.28099822998046 L 114.38400268554688 -47.083999633789055 L 114.58100128173828 -46.910999298095696 L 114.68800354003906 -46.83982849121093 L 114.79900360107422 -46.765998840332024 L 115.03399658203125 -46.6500015258789 L 115.28199768066406 -46.56600189208984 L 115.53900146484375 -46.51499938964843 L 115.80000305175781 -46.49700164794921 L 116.06099700927734 -46.51499938964843 L 116.31800079345703 -46.56600189208984 L 116.56600189208984 -46.6500015258789 L 116.73600006103516 -46.73391342163085 L 116.8010025024414 -46.765998840332024 L 117.01899719238281 -46.910999298095696 L 117.21600341796875 -47.083999633789055 L 117.38899993896484 -47.28099822998046 L 117.53399658203125 -47.4990005493164 L 117.6500015258789 -47.73400115966796 L 117.73400115966797 -47.98199844360351 L 117.78500366210938 -48.23899841308592 L 117.8030014038086 -48.499999999999986 L 117.78500366210938 -48.76100158691405 L 117.73400115966797 -49.01800155639647 L 117.68861389160156 -49.15200042724608 L 117.6500015258789 -49.26599884033202 L 117.53399658203125 -49.50099945068358 L 117.38899993896484 -49.71900177001952 L 117.21600341796875 -49.91600036621092 L 117.01899719238281 -50.08900070190428 L 116.8010025024414 -50.234001159667955 L 116.73600006103516 -50.266086578369126 L 116.56600189208984 -50.34999847412108 L 116.31800079345703 -50.43399810791014 L 116.06099700927734 -50.48500061035155 L 115.80000305175781 -50.50199890136717 L 115.53900146484375 -50.48500061035155 L 115.28199768066406 -50.43399810791014 L 115.03399658203125 -50.34999847412108 L 114.79900360107422 -50.234001159667955 L 114.68800354003906 -50.16017150878905 L 114.58100128173828 -50.08900070190428 L 114.38400268554688 -49.91600036621092 L 114.21099853515625 -49.71900177001952 L 114.06600189208984 -49.50099945068358 L 114.00299835205078 -49.373371124267564 L 113.94999694824219 -49.26599884033202 L 113.91138458251953 -49.15200042724608 L 113.86599731445312 -49.01800155639647 M 113.81500244140625 50.462001800537095 L 113.86599731445312 50.71900177001952 L 113.94999694824219 50.966999053955064 L 114.00299835205078 51.073913574218736 L 114.06600189208984 51.20100021362303 L 114.21099853515625 51.418998718261705 L 114.38400268554688 51.616001129150376 L 114.58100128173828 51.789001464843736 L 114.68800354003906 51.860168457031236 L 114.79900360107422 51.93399810791014 L 115.03399658203125 52.04999923706053 L 115.28199768066406 52.133998870849595 L 115.53900146484375 52.186000823974595 L 115.80000305175781 52.20299911499022 L 116.06099700927734 52.186000823974595 L 116.31800079345703 52.133998870849595 L 116.56600189208984 52.04999923706053 L 116.73600006103516 51.966083526611314 L 116.8010025024414 51.93399810791014 L 117.01899719238281 51.789001464843736 L 117.21600341796875 51.616001129150376 L 117.38899993896484 51.418998718261705 L 117.53399658203125 51.20100021362303 L 117.6500015258789 50.966999053955064 L 117.73400115966797 50.71900177001952 L 117.78500366210938 50.462001800537095 L 117.8030014038086 50.20000076293944 L 117.78500366210938 49.938999176025376 L 117.73400115966797 49.681999206542955 L 117.6500015258789 49.43399810791014 L 117.53399658203125 49.199001312255845 L 117.50273895263672 49.15200042724608 L 117.38899993896484 48.98099899291991 L 117.21600341796875 48.7840003967285 L 117.01899719238281 48.611999511718736 L 116.8010025024414 48.46599960327147 L 116.56600189208984 48.34999847412108 L 116.31800079345703 48.26599884033202 L 116.06099700927734 48.215000152587876 L 115.80000305175781 48.19800186157225 L 115.53900146484375 48.215000152587876 L 115.28199768066406 48.26599884033202 L 115.03399658203125 48.34999847412108 L 114.79900360107422 48.46599960327147 L 114.68800354003906 48.54034042358397 L 114.58100128173828 48.611999511718736 L 114.38400268554688 48.7840003967285 L 114.21099853515625 48.98099899291991 L 114.09725952148438 49.15200042724608 L 114.06600189208984 49.199001312255845 L 114.00299835205078 49.32662963867186 L 113.94999694824219 49.43399810791014 L 113.86599731445312 49.681999206542955 L 113.81500244140625 49.938999176025376 L 113.7979965209961 50.20000076293944 L 113.81500244140625 50.462001800537095 M 156.31500244140625 -48.76100158691405 L 156.29800415039062 -48.499999999999986 L 156.31500244140625 -48.23899841308592 L 156.36599731445312 -47.98199844360351 L 156.4499969482422 -47.73400115966796 L 156.5659942626953 -47.4990005493164 L 156.71099853515625 -47.28099822998046 L 156.88400268554688 -47.083999633789055 L 157.08099365234375 -46.910999298095696 L 157.2989959716797 -46.765998840332024 L 157.53399658203125 -46.6500015258789 L 157.6959991455078 -46.59513092041015 L 157.78199768066406 -46.56600189208984 L 158.03900146484375 -46.51499938964843 L 158.3000030517578 -46.49700164794921 L 158.56100463867188 -46.51499938964843 L 158.8179931640625 -46.56600189208984 L 159.0659942626953 -46.6500015258789 L 159.30099487304688 -46.765998840332024 L 159.5189971923828 -46.910999298095696 L 159.71600341796875 -47.083999633789055 L 159.74400329589844 -47.11588287353515 L 159.88900756835938 -47.28099822998046 L 160.03399658203125 -47.4990005493164 L 160.14999389648438 -47.73400115966796 L 160.23399353027344 -47.98199844360351 L 160.28500366210938 -48.23899841308592 L 160.30299377441406 -48.499999999999986 L 160.28500366210938 -48.76100158691405 L 160.23399353027344 -49.01800155639647 L 160.18861389160156 -49.15200042724608 L 160.14999389648438 -49.26599884033202 L 160.03399658203125 -49.50099945068358 L 159.88900756835938 -49.71900177001952 L 159.74400329589844 -49.88411712646483 L 159.71600341796875 -49.91600036621092 L 159.5189971923828 -50.08900070190428 L 159.30099487304688 -50.234001159667955 L 159.0659942626953 -50.34999847412108 L 158.8179931640625 -50.43399810791014 L 158.56100463867188 -50.48500061035155 L 158.3000030517578 -50.50199890136717 L 158.03900146484375 -50.48500061035155 L 157.78199768066406 -50.43399810791014 L 157.6959991455078 -50.40486907958983 L 157.53399658203125 -50.34999847412108 L 157.2989959716797 -50.234001159667955 L 157.08099365234375 -50.08900070190428 L 156.88400268554688 -49.91600036621092 L 156.71099853515625 -49.71900177001952 L 156.5659942626953 -49.50099945068358 L 156.4499969482422 -49.26599884033202 L 156.41139221191406 -49.15200042724608 L 156.36599731445312 -49.01800155639647 L 156.31500244140625 -48.76100158691405 M 130.47000122070312 -23.021999359130856 L 131.07200622558594 -22.57516288757324 L 131.17999267578125 -22.495000839233395 L 131.93800354003906 -22.041000366210934 L 132.73599243164062 -21.66300010681152 L 133.5679931640625 -21.365999221801754 L 134.4250030517578 -21.150999069213864 L 135.2989959716797 -21.021999359130856 L 136.1820068359375 -20.978000640869137 L 137.06399536132812 -21.021999359130856 L 137.93800354003906 -21.150999069213864 L 138.7949981689453 -21.365999221801754 L 139.26400756835938 -21.533418655395504 L 139.6269989013672 -21.66300010681152 L 140.4250030517578 -22.041000366210934 L 141.18299865722656 -22.495000839233395 L 141.89300537109375 -23.021999359130856 L 142.5469970703125 -23.61499977111816 L 143.14100646972656 -24.270000457763665 L 143.36801147460938 -24.57600021362304 L 143.4429931640625 -24.67706871032714 L 143.66700744628906 -24.979000091552727 L 144.12100219726562 -25.736999511718743 L 144.49899291992188 -26.535999298095696 L 144.79600524902344 -27.367000579833977 L 145.01100158691406 -28.224000930786126 L 145.14100646972656 -29.0979995727539 L 145.1840057373047 -29.981000900268548 L 145.14100646972656 -30.86300086975097 L 145.01100158691406 -31.736999511718743 L 144.79600524902344 -32.594001770019524 L 144.73388671875 -32.76800155639648 L 144.49899291992188 -33.42599868774413 L 144.12100219726562 -34.22399902343749 L 143.66700744628906 -34.98199844360351 L 143.4429931640625 -35.28435897827148 L 143.14100646972656 -35.69200134277343 L 142.5469970703125 -36.34600067138671 L 141.89300537109375 -36.93999862670898 L 141.18299865722656 -37.46599960327148 L 140.4250030517578 -37.919998168945305 L 139.6269989013672 -38.29800033569335 L 139.26400756835938 -38.42801666259765 L 138.7949981689453 -38.59600067138671 L 137.93800354003906 -38.81000137329101 L 137.06399536132812 -38.93999862670898 L 136.1820068359375 -38.98300170898437 L 135.2989959716797 -38.93999862670898 L 134.4250030517578 -38.81000137329101 L 133.5679931640625 -38.59600067138671 L 132.73599243164062 -38.29800033569335 L 131.93800354003906 -37.919998168945305 L 131.17999267578125 -37.46599960327148 L 131.07200622558594 -37.38599014282226 L 130.47000122070312 -36.93999862670898 L 129.8159942626953 -36.34600067138671 L 129.2220001220703 -35.69200134277343 L 128.6959991455078 -34.98199844360351 L 128.24200439453125 -34.22399902343749 L 127.86399841308594 -33.42599868774413 L 127.62911224365234 -32.76800155639648 L 127.56700134277344 -32.594001770019524 L 127.35199737548828 -31.736999511718743 L 127.22200012207031 -30.86300086975097 L 127.17900085449219 -29.981000900268548 L 127.22200012207031 -29.0979995727539 L 127.35199737548828 -28.224000930786126 L 127.56700134277344 -27.367000579833977 L 127.86399841308594 -26.535999298095696 L 128.24200439453125 -25.736999511718743 L 128.6959991455078 -24.979000091552727 L 129.2220001220703 -24.270000457763665 L 129.8159942626953 -23.61499977111816 L 130.47000122070312 -23.021999359130856 M 149.05499267578125 -45.01300048828124 L 149.14999389648438 -44.73400115966796 L 149.27999877929688 -44.47000122070312 L 149.44400024414062 -44.22499847412109 L 149.63800048828125 -44.002998352050774 L 149.86000061035156 -43.80899810791015 L 150.10499572753906 -43.645000457763665 L 150.36900329589844 -43.51499938964843 L 150.6479949951172 -43.419998168945305 L 150.93699645996094 -43.36299896240234 L 151.2310028076172 -43.342998504638665 L 151.52499389648438 -43.36299896240234 L 151.552001953125 -43.36832427978515 L 151.81399536132812 -43.419998168945305 L 152.09300231933594 -43.51499938964843 L 152.35699462890625 -43.645000457763665 L 152.6020050048828 -43.80899810791015 L 152.82400512695312 -44.002998352050774 L 153.01800537109375 -44.22499847412109 L 153.1820068359375 -44.47000122070312 L 153.31199645996094 -44.73400115966796 L 153.40699768066406 -45.01300048828124 L 153.4154815673828 -45.05599975585937 L 153.46400451660156 -45.30199813842773 L 153.48399353027344 -45.59600067138671 L 153.46400451660156 -45.88999938964843 L 153.40699768066406 -46.17900085449218 L 153.31199645996094 -46.45800018310546 L 153.1820068359375 -46.722000122070305 L 153.01800537109375 -46.96699905395507 L 152.82400512695312 -47.18899917602538 L 152.6020050048828 -47.38299942016601 L 152.35699462890625 -47.54700088500976 L 152.09300231933594 -47.67699813842773 L 151.81399536132812 -47.77199935913085 L 151.552001953125 -47.82367324829101 L 151.52499389648438 -47.82899856567382 L 151.2310028076172 -47.8479995727539 L 150.93699645996094 -47.82899856567382 L 150.6479949951172 -47.77199935913085 L 150.36900329589844 -47.67699813842773 L 150.10499572753906 -47.54700088500976 L 149.86000061035156 -47.38299942016601 L 149.63800048828125 -47.18899917602538 L 149.563720703125 -47.10400009155273 L 149.44400024414062 -46.96699905395507 L 149.27999877929688 -46.722000122070305 L 149.14999389648438 -46.45800018310546 L 149.05499267578125 -46.17900085449218 L 148.9980010986328 -45.88999938964843 L 148.97900390625 -45.59600067138671 L 148.9980010986328 -45.30199813842773 L 149.04652404785156 -45.05599975585937 L 149.05499267578125 -45.01300048828124 M 130.47000122070312 37.57799911499023 L 131.07200622558594 38.02483749389648 L 131.17999267578125 38.10499954223632 L 131.93800354003906 38.55899810791015 L 132.73599243164062 38.937000274658196 L 133.5679931640625 39.23400115966796 L 134.4250030517578 39.44900131225585 L 135.2989959716797 39.57799911499023 L 136.1820068359375 39.62200164794921 L 137.06399536132812 39.57799911499023 L 137.93800354003906 39.44900131225585 L 138.7949981689453 39.23400115966796 L 139.26400756835938 39.06658172607421 L 139.6269989013672 38.937000274658196 L 140.4250030517578 38.55899810791015 L 141.18299865722656 38.10499954223632 L 141.89300537109375 37.57799911499023 L 142.5469970703125 36.985000610351555 L 143.14100646972656 36.33000183105468 L 143.66700744628906 35.62099838256835 L 144.12100219726562 34.86299896240234 L 144.49899291992188 34.06399917602538 L 144.79600524902344 33.23300170898437 L 144.91265869140625 32.76800155639648 L 145.01100158691406 32.37599945068359 L 145.14100646972656 31.502000808715813 L 145.1840057373047 30.618999481201165 L 145.14100646972656 29.736999511718743 L 145.01100158691406 28.86300086975097 L 144.79600524902344 28.00600051879882 L 144.49899291992188 27.173999786376946 L 144.12100219726562 26.375999450683587 L 143.66700744628906 25.61800003051757 L 143.14100646972656 24.908000946044915 L 142.83946228027344 24.57600021362304 L 142.5469970703125 24.253999710083 L 141.89300537109375 23.659999847412106 L 141.18299865722656 23.13400077819824 L 140.4250030517578 22.680000305175778 L 139.6269989013672 22.302000045776364 L 139.26400756835938 22.171983718872067 L 138.7949981689453 22.003999710083004 L 137.93800354003906 21.79000091552734 L 137.06399536132812 21.659999847412106 L 136.1820068359375 21.61700057983398 L 135.2989959716797 21.659999847412106 L 134.4250030517578 21.79000091552734 L 133.5679931640625 22.003999710083004 L 132.73599243164062 22.302000045776364 L 131.93800354003906 22.680000305175778 L 131.17999267578125 23.13400077819824 L 131.07200622558594 23.21401214599609 L 130.47000122070312 23.659999847412106 L 129.8159942626953 24.253999710083 L 129.2220001220703 24.908000946044915 L 128.6959991455078 25.61800003051757 L 128.24200439453125 26.375999450683587 L 127.86399841308594 27.173999786376946 L 127.56700134277344 28.00600051879882 L 127.35199737548828 28.86300086975097 L 127.22200012207031 29.736999511718743 L 127.17900085449219 30.618999481201165 L 127.22200012207031 31.502000808715813 L 127.35199737548828 32.37599945068359 L 127.4503402709961 32.76800155639648 L 127.56700134277344 33.23300170898437 L 127.86399841308594 34.06399917602538 L 128.24200439453125 34.86299896240234 L 128.6959991455078 35.62099838256835 L 129.2220001220703 36.33000183105468 L 129.8159942626953 36.985000610351555 L 130.47000122070312 37.57799911499023 M 156.31500244140625 49.938999176025376 L 156.29800415039062 50.20000076293944 L 156.31500244140625 50.462001800537095 L 156.36599731445312 50.71900177001952 L 156.4499969482422 50.966999053955064 L 156.5655059814453 51.20000076293944 L 156.5659942626953 51.20100021362303 L 156.71099853515625 51.418998718261705 L 156.88400268554688 51.616001129150376 L 157.08099365234375 51.789001464843736 L 157.2989959716797 51.93399810791014 L 157.53399658203125 52.04999923706053 L 157.6959991455078 52.10486984252928 L 157.78199768066406 52.133998870849595 L 158.03900146484375 52.186000823974595 L 158.3000030517578 52.20299911499022 L 158.56100463867188 52.186000823974595 L 158.8179931640625 52.133998870849595 L 159.0659942626953 52.04999923706053 L 159.30099487304688 51.93399810791014 L 159.5189971923828 51.789001464843736 L 159.71600341796875 51.616001129150376 L 159.74400329589844 51.58411407470702 L 159.88900756835938 51.418998718261705 L 160.03399658203125 51.20100021362303 L 160.14999389648438 50.966999053955064 L 160.23399353027344 50.71900177001952 L 160.28500366210938 50.462001800537095 L 160.30299377441406 50.20000076293944 L 160.28500366210938 49.938999176025376 L 160.23399353027344 49.681999206542955 L 160.14999389648438 49.43399810791014 L 160.03399658203125 49.199001312255845 L 160.0027313232422 49.15200042724608 L 159.88900756835938 48.98099899291991 L 159.74400329589844 48.815883636474595 L 159.71600341796875 48.7840003967285 L 159.5189971923828 48.611999511718736 L 159.30099487304688 48.46599960327147 L 159.0659942626953 48.34999847412108 L 158.8179931640625 48.26599884033202 L 158.56100463867188 48.215000152587876 L 158.3000030517578 48.19800186157225 L 158.03900146484375 48.215000152587876 L 157.78199768066406 48.26599884033202 L 157.6959991455078 48.29512786865233 L 157.53399658203125 48.34999847412108 L 157.2989959716797 48.46599960327147 L 157.08099365234375 48.611999511718736 L 156.88400268554688 48.7840003967285 L 156.71099853515625 48.98099899291991 L 156.59725952148438 49.15200042724608 L 156.5659942626953 49.199001312255845 L 156.4499969482422 49.43399810791014 L 156.36599731445312 49.681999206542955 L 156.31500244140625 49.938999176025376 M 157.6020050048828 20.190000534057614 L 147.5970001220703 20.190000534057614 L 147.5970001220703 29.19499969482421 L 157.6020050048828 29.19499969482421 L 157.6020050048828 20.190000534057614 z" fill="none" stroke="rgb(255,0,0)" stroke-width="0.001mm" />
</svg>