999
"DXF R12 Output" (www.mydxf.blogspot.com)
 0 
SECTION
 2 
HEADER
 9 
$ACADVER
 1 
AC1009
 9 
$EXTMIN
 10 
 0 
 20 
 0 
 9 
$EXTMAX
 10 
 8.5 
 20 
 11 
 0 
ENDSEC
 0 
SECTION
 2 
ENTITIES
0
POLYLINE
8
Layer 1
62
10
70
0
10
0.000000
20
0.000000
66
1
0
VERTEX
8
Layer 1
10
102.402000
20
97.112000
70
0
0
VERTEX
8
Layer 1
10
102.227448
20
97.481003
70
0
0
VERTEX
8
Layer 1
10
102.000000
20
97.961808
70
0
0
VERTEX
8
Layer 1
10
102.000000
20
103.102997
70
0
0
VERTEX
8
Layer 1
10
102.000000
20
236.106003
70
0
0
VERTEX
8
Layer 1
10
102.000000
20
236.745003
70
0
0
VERTEX
8
Layer 1
10
102.000000
20
241.246880
70
0
0
VERTEX
8
Layer 1
10
102.402000
20
242.096001
70
0
0
VERTEX
8
Layer 1
10
103.109001
20
243.275002
70
0
0
VERTEX
8
Layer 1
10
103.927002
20
244.378998
70
0
0
VERTEX
8
Layer 1
10
104.849998
20
245.397004
70
0
0
VERTEX
8
Layer 1
10
105.869003
20
246.320000
70
0
0
VERTEX
8
Layer 1
10
106.973000
20
247.138001
70
0
0
VERTEX
8
Layer 1
10
108.151001
20
247.845002
70
0
0
VERTEX
8
Layer 1
10
108.583412
20
248.049202
70
0
0
VERTEX
8
Layer 1
10
114.002998
20
248.333268
70
0
0
VERTEX
8
Layer 1
10
117.803001
20
248.532448
70
0
0
VERTEX
8
Layer 1
10
124.438004
20
248.880219
70
0
0
VERTEX
8
Layer 1
10
126.834000
20
249.005806
70
0
0
VERTEX
8
Layer 1
10
127.179001
20
249.023888
70
0
0
VERTEX
8
Layer 1
10
143.442993
20
249.876366
70
0
0
VERTEX
8
Layer 1
10
145.184006
20
249.967621
70
0
0
VERTEX
8
Layer 1
10
148.979004
20
250.166535
70
0
0
VERTEX
8
Layer 1
10
150.837112
20
250.263932
70
0
0
VERTEX
8
Layer 1
10
156.298004
20
250.550164
70
0
0
VERTEX
8
Layer 1
10
160.302994
20
250.760086
70
0
0
VERTEX
8
Layer 1
10
173.678635
20
251.461167
70
0
0
VERTEX
8
Layer 1
10
226.104691
20
254.209084
70
0
0
VERTEX
8
Layer 1
10
247.665817
20
251.178490
70
0
0
VERTEX
8
Layer 1
10
256.997986
20
249.866776
70
0
0
VERTEX
8
Layer 1
10
261.748047
20
249.199120
70
0
0
VERTEX
8
Layer 1
10
262.144012
20
249.009903
70
0
0
VERTEX
8
Layer 1
10
262.848999
20
248.672997
70
0
0
VERTEX
8
Layer 1
10
264.028015
20
247.959000
70
0
0
VERTEX
8
Layer 1
10
265.131012
20
247.131997
70
0
0
VERTEX
8
Layer 1
10
266.149994
20
246.198998
70
0
0
VERTEX
8
Layer 1
10
267.072998
20
245.169999
70
0
0
VERTEX
8
Layer 1
10
267.890991
20
244.055001
70
0
0
VERTEX
8
Layer 1
10
268.597992
20
242.863999
70
0
0
VERTEX
8
Layer 1
10
269.186005
20
241.608002
70
0
0
VERTEX
8
Layer 1
10
269.648987
20
240.301003
70
0
0
VERTEX
8
Layer 1
10
269.983002
20
238.954003
70
0
0
VERTEX
8
Layer 1
10
270.000000
20
238.837792
70
0
0
VERTEX
8
Layer 1
10
270.000000
20
236.809998
70
0
0
VERTEX
8
Layer 1
10
270.000000
20
102.399002
70
0
0
VERTEX
8
Layer 1
10
270.000000
20
100.371209
70
0
0
VERTEX
8
Layer 1
10
269.983002
20
100.254998
70
0
0
VERTEX
8
Layer 1
10
269.648987
20
98.907997
70
0
0
VERTEX
8
Layer 1
10
269.186005
20
97.600998
70
0
0
VERTEX
8
Layer 1
10
268.597992
20
96.345002
70
0
0
VERTEX
8
Layer 1
10
267.890991
20
95.154000
70
0
0
VERTEX
8
Layer 1
10
267.072998
20
94.039002
70
0
0
VERTEX
8
Layer 1
10
266.149994
20
93.010003
70
0
0
VERTEX
8
Layer 1
10
265.131012
20
92.076996
70
0
0
VERTEX
8
Layer 1
10
264.028015
20
91.250000
70
0
0
VERTEX
8
Layer 1
10
262.848999
20
90.536003
70
0
0
VERTEX
8
Layer 1
10
262.144012
20
90.199097
70
0
0
VERTEX
8
Layer 1
10
261.748047
20
90.009880
70
0
0
VERTEX
8
Layer 1
10
256.997986
20
89.342224
70
0
0
VERTEX
8
Layer 1
10
247.665817
20
88.030510
70
0
0
VERTEX
8
Layer 1
10
226.104691
20
84.999916
70
0
0
VERTEX
8
Layer 1
10
173.678635
20
87.747834
70
0
0
VERTEX
8
Layer 1
10
156.298004
20
88.658837
70
0
0
VERTEX
8
Layer 1
10
127.179001
20
90.185112
70
0
0
VERTEX
8
Layer 1
10
124.438004
20
90.328781
70
0
0
VERTEX
8
Layer 1
10
114.002998
20
90.875733
70
0
0
VERTEX
8
Layer 1
10
108.582581
20
91.159844
70
0
0
VERTEX
8
Layer 1
10
108.151001
20
91.363999
70
0
0
VERTEX
8
Layer 1
10
106.973000
20
92.070000
70
0
0
VERTEX
8
Layer 1
10
105.869003
20
92.889000
70
0
0
VERTEX
8
Layer 1
10
104.849998
20
93.811997
70
0
0
VERTEX
8
Layer 1
10
103.927002
20
94.830002
70
0
0
VERTEX
8
Layer 1
10
103.109001
20
95.933998
70
0
0
VERTEX
8
Layer 1
10
102.402000
20
97.112000
70
0
0
SEQEND
8
Layer 1
0
POLYLINE
8
Layer 1
62
10
70
0
10
0.000000
20
0.000000
66
1
0
VERTEX
8
Layer 1
10
121.038887
20
162.237000
70
0
0
VERTEX
8
Layer 1
10
121.290039
20
162.237000
70
0
0
VERTEX
8
Layer 1
10
122.481010
20
162.237000
70
0
0
VERTEX
8
Layer 1
10
122.879997
20
162.237000
70
0
0
VERTEX
8
Layer 1
10
124.438004
20
162.237000
70
0
0
VERTEX
8
Layer 1
10
124.438004
20
161.637000
70
0
0
VERTEX
8
Layer 1
10
124.438004
20
156.637000
70
0
0
VERTEX
8
Layer 1
10
127.179001
20
156.637000
70
0
0
VERTEX
8
Layer 1
10
143.442993
20
156.637000
70
0
0
VERTEX
8
Layer 1
10
143.442993
20
161.637000
70
0
0
VERTEX
8
Layer 1
10
143.442993
20
162.237000
70
0
0
VERTEX
8
Layer 1
10
143.442993
20
178.042000
70
0
0
VERTEX
8
Layer 1
10
143.442993
20
184.142000
70
0
0
VERTEX
8
Layer 1
10
127.179001
20
184.142000
70
0
0
VERTEX
8
Layer 1
10
126.834000
20
184.142000
70
0
0
VERTEX
8
Layer 1
10
124.438004
20
184.142000
70
0
0
VERTEX
8
Layer 1
10
124.438004
20
179.642000
70
0
0
VERTEX
8
Layer 1
10
124.438004
20
178.878105
70
0
0
VERTEX
8
Layer 1
10
124.438004
20
178.042000
70
0
0
VERTEX
8
Layer 1
10
124.274635
20
178.042000
70
0
0
VERTEX
8
Layer 1
10
123.878937
20
178.042000
70
0
0
VERTEX
8
Layer 1
10
123.538231
20
178.042000
70
0
0
VERTEX
8
Layer 1
10
123.255135
20
178.042000
70
0
0
VERTEX
8
Layer 1
10
123.055252
20
178.042000
70
0
0
VERTEX
8
Layer 1
10
122.945038
20
178.042000
70
0
0
VERTEX
8
Layer 1
10
122.879997
20
178.090180
70
0
0
VERTEX
8
Layer 1
10
122.833000
20
178.125000
70
0
0
VERTEX
8
Layer 1
10
122.074997
20
178.579000
70
0
0
VERTEX
8
Layer 1
10
121.277000
20
178.957000
70
0
0
VERTEX
8
Layer 1
10
120.445000
20
179.255000
70
0
0
VERTEX
8
Layer 1
10
119.587997
20
179.469000
70
0
0
VERTEX
8
Layer 1
10
118.713997
20
179.599000
70
0
0
VERTEX
8
Layer 1
10
117.832001
20
179.642000
70
0
0
VERTEX
8
Layer 1
10
116.948997
20
179.599000
70
0
0
VERTEX
8
Layer 1
10
116.074997
20
179.469000
70
0
0
VERTEX
8
Layer 1
10
115.218002
20
179.255000
70
0
0
VERTEX
8
Layer 1
10
114.688004
20
179.065168
70
0
0
VERTEX
8
Layer 1
10
114.386002
20
178.957000
70
0
0
VERTEX
8
Layer 1
10
114.002998
20
178.775579
70
0
0
VERTEX
8
Layer 1
10
113.587997
20
178.579000
70
0
0
VERTEX
8
Layer 1
10
112.830002
20
178.125000
70
0
0
VERTEX
8
Layer 1
10
112.120003
20
177.599000
70
0
0
VERTEX
8
Layer 1
10
111.466003
20
177.005000
70
0
0
VERTEX
8
Layer 1
10
110.872002
20
176.351000
70
0
0
VERTEX
8
Layer 1
10
110.346001
20
175.641000
70
0
0
VERTEX
8
Layer 1
10
109.891998
20
174.883000
70
0
0
VERTEX
8
Layer 1
10
109.514000
20
174.085000
70
0
0
VERTEX
8
Layer 1
10
109.217003
20
173.253000
70
0
0
VERTEX
8
Layer 1
10
109.001999
20
172.396000
70
0
0
VERTEX
8
Layer 1
10
108.872002
20
171.522000
70
0
0
VERTEX
8
Layer 1
10
108.856743
20
171.209000
70
0
0
VERTEX
8
Layer 1
10
108.829002
20
170.640000
70
0
0
VERTEX
8
Layer 1
10
108.872002
20
169.757000
70
0
0
VERTEX
8
Layer 1
10
109.001999
20
168.883000
70
0
0
VERTEX
8
Layer 1
10
109.217003
20
168.026000
70
0
0
VERTEX
8
Layer 1
10
109.514000
20
167.195000
70
0
0
VERTEX
8
Layer 1
10
109.891998
20
166.396000
70
0
0
VERTEX
8
Layer 1
10
110.346001
20
165.638000
70
0
0
VERTEX
8
Layer 1
10
110.872002
20
164.929000
70
0
0
VERTEX
8
Layer 1
10
111.466003
20
164.274000
70
0
0
VERTEX
8
Layer 1
10
112.120003
20
163.681000
70
0
0
VERTEX
8
Layer 1
10
112.830002
20
163.154000
70
0
0
VERTEX
8
Layer 1
10
113.587997
20
162.700000
70
0
0
VERTEX
8
Layer 1
10
114.002998
20
162.503421
70
0
0
VERTEX
8
Layer 1
10
114.386002
20
162.322000
70
0
0
VERTEX
8
Layer 1
10
114.688004
20
162.214195
70
0
0
VERTEX
8
Layer 1
10
115.218002
20
162.025000
70
0
0
VERTEX
8
Layer 1
10
116.074997
20
161.810000
70
0
0
VERTEX
8
Layer 1
10
116.948997
20
161.681000
70
0
0
VERTEX
8
Layer 1
10
117.832001
20
161.637000
70
0
0
VERTEX
8
Layer 1
10
118.713997
20
161.681000
70
0
0
VERTEX
8
Layer 1
10
119.587997
20
161.810000
70
0
0
VERTEX
8
Layer 1
10
120.445000
20
162.025000
70
0
0
VERTEX
8
Layer 1
10
121.038887
20
162.237000
70
0
0
SEQEND
8
Layer 1
0
POLYLINE
8
Layer 1
62
10
70
0
10
0.000000
20
0.000000
66
1
0
VERTEX
8
Layer 1
10
113.865997
20
220.227002
70
0
0
VERTEX
8
Layer 1
10
113.815002
20
219.970002
70
0
0
VERTEX
8
Layer 1
10
113.797997
20
219.709000
70
0
0
VERTEX
8
Layer 1
10
113.815002
20
219.447998
70
0
0
VERTEX
8
Layer 1
10
113.865997
20
219.190998
70
0
0
VERTEX
8
Layer 1
10
113.949997
20
218.943001
70
0
0
VERTEX
8
Layer 1
10
114.002998
20
218.835629
70
0
0
VERTEX
8
Layer 1
10
114.066002
20
218.708001
70
0
0
VERTEX
8
Layer 1
10
114.210999
20
218.489998
70
0
0
VERTEX
8
Layer 1
10
114.384003
20
218.293000
70
0
0
VERTEX
8
Layer 1
10
114.581001
20
218.119999
70
0
0
VERTEX
8
Layer 1
10
114.688004
20
218.048828
70
0
0
VERTEX
8
Layer 1
10
114.799004
20
217.974999
70
0
0
VERTEX
8
Layer 1
10
115.033997
20
217.859002
70
0
0
VERTEX
8
Layer 1
10
115.281998
20
217.775002
70
0
0
VERTEX
8
Layer 1
10
115.539001
20
217.723999
70
0
0
VERTEX
8
Layer 1
10
115.800003
20
217.706002
70
0
0
VERTEX
8
Layer 1
10
116.060997
20
217.723999
70
0
0
VERTEX
8
Layer 1
10
116.318001
20
217.775002
70
0
0
VERTEX
8
Layer 1
10
116.566002
20
217.859002
70
0
0
VERTEX
8
Layer 1
10
116.736000
20
217.942913
70
0
0
VERTEX
8
Layer 1
10
116.801003
20
217.974999
70
0
0
VERTEX
8
Layer 1
10
117.018997
20
218.119999
70
0
0
VERTEX
8
Layer 1
10
117.216003
20
218.293000
70
0
0
VERTEX
8
Layer 1
10
117.389000
20
218.489998
70
0
0
VERTEX
8
Layer 1
10
117.533997
20
218.708001
70
0
0
VERTEX
8
Layer 1
10
117.650002
20
218.943001
70
0
0
VERTEX
8
Layer 1
10
117.734001
20
219.190998
70
0
0
VERTEX
8
Layer 1
10
117.785004
20
219.447998
70
0
0
VERTEX
8
Layer 1
10
117.803001
20
219.709000
70
0
0
VERTEX
8
Layer 1
10
117.785004
20
219.970002
70
0
0
VERTEX
8
Layer 1
10
117.734001
20
220.227002
70
0
0
VERTEX
8
Layer 1
10
117.688614
20
220.361000
70
0
0
VERTEX
8
Layer 1
10
117.650002
20
220.474999
70
0
0
VERTEX
8
Layer 1
10
117.533997
20
220.709999
70
0
0
VERTEX
8
Layer 1
10
117.389000
20
220.928002
70
0
0
VERTEX
8
Layer 1
10
117.216003
20
221.125000
70
0
0
VERTEX
8
Layer 1
10
117.018997
20
221.298001
70
0
0
VERTEX
8
Layer 1
10
116.801003
20
221.443001
70
0
0
VERTEX
8
Layer 1
10
116.736000
20
221.475087
70
0
0
VERTEX
8
Layer 1
10
116.566002
20
221.558998
70
0
0
VERTEX
8
Layer 1
10
116.318001
20
221.642998
70
0
0
VERTEX
8
Layer 1
10
116.060997
20
221.694001
70
0
0
VERTEX
8
Layer 1
10
115.800003
20
221.710999
70
0
0
VERTEX
8
Layer 1
10
115.539001
20
221.694001
70
0
0
VERTEX
8
Layer 1
10
115.281998
20
221.642998
70
0
0
VERTEX
8
Layer 1
10
115.033997
20
221.558998
70
0
0
VERTEX
8
Layer 1
10
114.799004
20
221.443001
70
0
0
VERTEX
8
Layer 1
10
114.688004
20
221.369172
70
0
0
VERTEX
8
Layer 1
10
114.581001
20
221.298001
70
0
0
VERTEX
8
Layer 1
10
114.384003
20
221.125000
70
0
0
VERTEX
8
Layer 1
10
114.210999
20
220.928002
70
0
0
VERTEX
8
Layer 1
10
114.066002
20
220.709999
70
0
0
VERTEX
8
Layer 1
10
114.002998
20
220.582371
70
0
0
VERTEX
8
Layer 1
10
113.949997
20
220.474999
70
0
0
VERTEX
8
Layer 1
10
113.911385
20
220.361000
70
0
0
VERTEX
8
Layer 1
10
113.865997
20
220.227002
70
0
0
SEQEND
8
Layer 1
0
POLYLINE
8
Layer 1
62
10
70
0
10
0.000000
20
0.000000
66
1
0
VERTEX
8
Layer 1
10
113.815002
20
120.746998
70
0
0
VERTEX
8
Layer 1
10
113.865997
20
120.489998
70
0
0
VERTEX
8
Layer 1
10
113.949997
20
120.242001
70
0
0
VERTEX
8
Layer 1
10
114.002998
20
120.135086
70
0
0
VERTEX
8
Layer 1
10
114.066002
20
120.008000
70
0
0
VERTEX
8
Layer 1
10
114.210999
20
119.790001
70
0
0
VERTEX
8
Layer 1
10
114.384003
20
119.592999
70
0
0
VERTEX
8
Layer 1
10
114.581001
20
119.419999
70
0
0
VERTEX
8
Layer 1
10
114.688004
20
119.348832
70
0
0
VERTEX
8
Layer 1
10
114.799004
20
119.275002
70
0
0
VERTEX
8
Layer 1
10
115.033997
20
119.159001
70
0
0
VERTEX
8
Layer 1
10
115.281998
20
119.075001
70
0
0
VERTEX
8
Layer 1
10
115.539001
20
119.022999
70
0
0
VERTEX
8
Layer 1
10
115.800003
20
119.006001
70
0
0
VERTEX
8
Layer 1
10
116.060997
20
119.022999
70
0
0
VERTEX
8
Layer 1
10
116.318001
20
119.075001
70
0
0
VERTEX
8
Layer 1
10
116.566002
20
119.159001
70
0
0
VERTEX
8
Layer 1
10
116.736000
20
119.242916
70
0
0
VERTEX
8
Layer 1
10
116.801003
20
119.275002
70
0
0
VERTEX
8
Layer 1
10
117.018997
20
119.419999
70
0
0
VERTEX
8
Layer 1
10
117.216003
20
119.592999
70
0
0
VERTEX
8
Layer 1
10
117.389000
20
119.790001
70
0
0
VERTEX
8
Layer 1
10
117.533997
20
120.008000
70
0
0
VERTEX
8
Layer 1
10
117.650002
20
120.242001
70
0
0
VERTEX
8
Layer 1
10
117.734001
20
120.489998
70
0
0
VERTEX
8
Layer 1
10
117.785004
20
120.746998
70
0
0
VERTEX
8
Layer 1
10
117.803001
20
121.008999
70
0
0
VERTEX
8
Layer 1
10
117.785004
20
121.270001
70
0
0
VERTEX
8
Layer 1
10
117.734001
20
121.527001
70
0
0
VERTEX
8
Layer 1
10
117.650002
20
121.775002
70
0
0
VERTEX
8
Layer 1
10
117.533997
20
122.009999
70
0
0
VERTEX
8
Layer 1
10
117.502739
20
122.057000
70
0
0
VERTEX
8
Layer 1
10
117.389000
20
122.228001
70
0
0
VERTEX
8
Layer 1
10
117.216003
20
122.425000
70
0
0
VERTEX
8
Layer 1
10
117.018997
20
122.597000
70
0
0
VERTEX
8
Layer 1
10
116.801003
20
122.743000
70
0
0
VERTEX
8
Layer 1
10
116.566002
20
122.859002
70
0
0
VERTEX
8
Layer 1
10
116.318001
20
122.943001
70
0
0
VERTEX
8
Layer 1
10
116.060997
20
122.994000
70
0
0
VERTEX
8
Layer 1
10
115.800003
20
123.010998
70
0
0
VERTEX
8
Layer 1
10
115.539001
20
122.994000
70
0
0
VERTEX
8
Layer 1
10
115.281998
20
122.943001
70
0
0
VERTEX
8
Layer 1
10
115.033997
20
122.859002
70
0
0
VERTEX
8
Layer 1
10
114.799004
20
122.743000
70
0
0
VERTEX
8
Layer 1
10
114.688004
20
122.668660
70
0
0
VERTEX
8
Layer 1
10
114.581001
20
122.597000
70
0
0
VERTEX
8
Layer 1
10
114.384003
20
122.425000
70
0
0
VERTEX
8
Layer 1
10
114.210999
20
122.228001
70
0
0
VERTEX
8
Layer 1
10
114.097260
20
122.057000
70
0
0
VERTEX
8
Layer 1
10
114.066002
20
122.009999
70
0
0
VERTEX
8
Layer 1
10
114.002998
20
121.882370
70
0
0
VERTEX
8
Layer 1
10
113.949997
20
121.775002
70
0
0
VERTEX
8
Layer 1
10
113.865997
20
121.527001
70
0
0
VERTEX
8
Layer 1
10
113.815002
20
121.270001
70
0
0
VERTEX
8
Layer 1
10
113.797997
20
121.008999
70
0
0
VERTEX
8
Layer 1
10
113.815002
20
120.746998
70
0
0
SEQEND
8
Layer 1
0
POLYLINE
8
Layer 1
62
10
70
0
10
0.000000
20
0.000000
66
1
0
VERTEX
8
Layer 1
10
156.315002
20
219.970002
70
0
0
VERTEX
8
Layer 1
10
156.298004
20
219.709000
70
0
0
VERTEX
8
Layer 1
10
156.315002
20
219.447998
70
0
0
VERTEX
8
Layer 1
10
156.365997
20
219.190998
70
0
0
VERTEX
8
Layer 1
10
156.449997
20
218.943001
70
0
0
VERTEX
8
Layer 1
10
156.565994
20
218.708001
70
0
0
VERTEX
8
Layer 1
10
156.710999
20
218.489998
70
0
0
VERTEX
8
Layer 1
10
156.884003
20
218.293000
70
0
0
VERTEX
8
Layer 1
10
157.080994
20
218.119999
70
0
0
VERTEX
8
Layer 1
10
157.298996
20
217.974999
70
0
0
VERTEX
8
Layer 1
10
157.533997
20
217.859002
70
0
0
VERTEX
8
Layer 1
10
157.695999
20
217.804131
70
0
0
VERTEX
8
Layer 1
10
157.781998
20
217.775002
70
0
0
VERTEX
8
Layer 1
10
158.039001
20
217.723999
70
0
0
VERTEX
8
Layer 1
10
158.300003
20
217.706002
70
0
0
VERTEX
8
Layer 1
10
158.561005
20
217.723999
70
0
0
VERTEX
8
Layer 1
10
158.817993
20
217.775002
70
0
0
VERTEX
8
Layer 1
10
159.065994
20
217.859002
70
0
0
VERTEX
8
Layer 1
10
159.300995
20
217.974999
70
0
0
VERTEX
8
Layer 1
10
159.518997
20
218.119999
70
0
0
VERTEX
8
Layer 1
10
159.716003
20
218.293000
70
0
0
VERTEX
8
Layer 1
10
159.744003
20
218.324883
70
0
0
VERTEX
8
Layer 1
10
159.889008
20
218.489998
70
0
0
VERTEX
8
Layer 1
10
160.033997
20
218.708001
70
0
0
VERTEX
8
Layer 1
10
160.149994
20
218.943001
70
0
0
VERTEX
8
Layer 1
10
160.233994
20
219.190998
70
0
0
VERTEX
8
Layer 1
10
160.285004
20
219.447998
70
0
0
VERTEX
8
Layer 1
10
160.302994
20
219.709000
70
0
0
VERTEX
8
Layer 1
10
160.285004
20
219.970002
70
0
0
VERTEX
8
Layer 1
10
160.233994
20
220.227002
70
0
0
VERTEX
8
Layer 1
10
160.188614
20
220.361000
70
0
0
VERTEX
8
Layer 1
10
160.149994
20
220.474999
70
0
0
VERTEX
8
Layer 1
10
160.033997
20
220.709999
70
0
0
VERTEX
8
Layer 1
10
159.889008
20
220.928002
70
0
0
VERTEX
8
Layer 1
10
159.744003
20
221.093117
70
0
0
VERTEX
8
Layer 1
10
159.716003
20
221.125000
70
0
0
VERTEX
8
Layer 1
10
159.518997
20
221.298001
70
0
0
VERTEX
8
Layer 1
10
159.300995
20
221.443001
70
0
0
VERTEX
8
Layer 1
10
159.065994
20
221.558998
70
0
0
VERTEX
8
Layer 1
10
158.817993
20
221.642998
70
0
0
VERTEX
8
Layer 1
10
158.561005
20
221.694001
70
0
0
VERTEX
8
Layer 1
10
158.300003
20
221.710999
70
0
0
VERTEX
8
Layer 1
10
158.039001
20
221.694001
70
0
0
VERTEX
8
Layer 1
10
157.781998
20
221.642998
70
0
0
VERTEX
8
Layer 1
10
157.695999
20
221.613869
70
0
0
VERTEX
8
Layer 1
10
157.533997
20
221.558998
70
0
0
VERTEX
8
Layer 1
10
157.298996
20
221.443001
70
0
0
VERTEX
8
Layer 1
10
157.080994
20
221.298001
70
0
0
VERTEX
8
Layer 1
10
156.884003
20
221.125000
70
0
0
VERTEX
8
Layer 1
10
156.710999
20
220.928002
70
0
0
VERTEX
8
Layer 1
10
156.565994
20
220.709999
70
0
0
VERTEX
8
Layer 1
10
156.449997
20
220.474999
70
0
0
VERTEX
8
Layer 1
10
156.411392
20
220.361000
70
0
0
VERTEX
8
Layer 1
10
156.365997
20
220.227002
70
0
0
VERTEX
8
Layer 1
10
156.315002
20
219.970002
70
0
0
SEQEND
8
Layer 1
0
POLYLINE
8
Layer 1
62
10
70
0
10
0.000000
20
0.000000
66
1
0
VERTEX
8
Layer 1
10
130.470001
20
194.230999
70
0
0
VERTEX
8
Layer 1
10
131.072006
20
193.784163
70
0
0
VERTEX
8
Layer 1
10
131.179993
20
193.704001
70
0
0
VERTEX
8
Layer 1
10
131.938004
20
193.250000
70
0
0
VERTEX
8
Layer 1
10
132.735992
20
192.872000
70
0
0
VERTEX
8
Layer 1
10
133.567993
20
192.574999
70
0
0
VERTEX
8
Layer 1
10
134.425003
20
192.359999
70
0
0
VERTEX
8
Layer 1
10
135.298996
20
192.230999
70
0
0
VERTEX
8
Layer 1
10
136.182007
20
192.187001
70
0
0
VERTEX
8
Layer 1
10
137.063995
20
192.230999
70
0
0
VERTEX
8
Layer 1
10
137.938004
20
192.359999
70
0
0
VERTEX
8
Layer 1
10
138.794998
20
192.574999
70
0
0
VERTEX
8
Layer 1
10
139.264008
20
192.742419
70
0
0
VERTEX
8
Layer 1
10
139.626999
20
192.872000
70
0
0
VERTEX
8
Layer 1
10
140.425003
20
193.250000
70
0
0
VERTEX
8
Layer 1
10
141.182999
20
193.704001
70
0
0
VERTEX
8
Layer 1
10
141.893005
20
194.230999
70
0
0
VERTEX
8
Layer 1
10
142.546997
20
194.824000
70
0
0
VERTEX
8
Layer 1
10
143.141006
20
195.479000
70
0
0
VERTEX
8
Layer 1
10
143.368011
20
195.785000
70
0
0
VERTEX
8
Layer 1
10
143.442993
20
195.886069
70
0
0
VERTEX
8
Layer 1
10
143.667007
20
196.188000
70
0
0
VERTEX
8
Layer 1
10
144.121002
20
196.946000
70
0
0
VERTEX
8
Layer 1
10
144.498993
20
197.744999
70
0
0
VERTEX
8
Layer 1
10
144.796005
20
198.576001
70
0
0
VERTEX
8
Layer 1
10
145.011002
20
199.433001
70
0
0
VERTEX
8
Layer 1
10
145.141006
20
200.307000
70
0
0
VERTEX
8
Layer 1
10
145.184006
20
201.190001
70
0
0
VERTEX
8
Layer 1
10
145.141006
20
202.072001
70
0
0
VERTEX
8
Layer 1
10
145.011002
20
202.946000
70
0
0
VERTEX
8
Layer 1
10
144.796005
20
203.803002
70
0
0
VERTEX
8
Layer 1
10
144.733887
20
203.977002
70
0
0
VERTEX
8
Layer 1
10
144.498993
20
204.634999
70
0
0
VERTEX
8
Layer 1
10
144.121002
20
205.432999
70
0
0
VERTEX
8
Layer 1
10
143.667007
20
206.190998
70
0
0
VERTEX
8
Layer 1
10
143.442993
20
206.493359
70
0
0
VERTEX
8
Layer 1
10
143.141006
20
206.901001
70
0
0
VERTEX
8
Layer 1
10
142.546997
20
207.555001
70
0
0
VERTEX
8
Layer 1
10
141.893005
20
208.148999
70
0
0
VERTEX
8
Layer 1
10
141.182999
20
208.675000
70
0
0
VERTEX
8
Layer 1
10
140.425003
20
209.128998
70
0
0
VERTEX
8
Layer 1
10
139.626999
20
209.507000
70
0
0
VERTEX
8
Layer 1
10
139.264008
20
209.637017
70
0
0
VERTEX
8
Layer 1
10
138.794998
20
209.805001
70
0
0
VERTEX
8
Layer 1
10
137.938004
20
210.019001
70
0
0
VERTEX
8
Layer 1
10
137.063995
20
210.148999
70
0
0
VERTEX
8
Layer 1
10
136.182007
20
210.192002
70
0
0
VERTEX
8
Layer 1
10
135.298996
20
210.148999
70
0
0
VERTEX
8
Layer 1
10
134.425003
20
210.019001
70
0
0
VERTEX
8
Layer 1
10
133.567993
20
209.805001
70
0
0
VERTEX
8
Layer 1
10
132.735992
20
209.507000
70
0
0
VERTEX
8
Layer 1
10
131.938004
20
209.128998
70
0
0
VERTEX
8
Layer 1
10
131.179993
20
208.675000
70
0
0
VERTEX
8
Layer 1
10
131.072006
20
208.594990
70
0
0
VERTEX
8
Layer 1
10
130.470001
20
208.148999
70
0
0
VERTEX
8
Layer 1
10
129.815994
20
207.555001
70
0
0
VERTEX
8
Layer 1
10
129.222000
20
206.901001
70
0
0
VERTEX
8
Layer 1
10
128.695999
20
206.190998
70
0
0
VERTEX
8
Layer 1
10
128.242004
20
205.432999
70
0
0
VERTEX
8
Layer 1
10
127.863998
20
204.634999
70
0
0
VERTEX
8
Layer 1
10
127.629112
20
203.977002
70
0
0
VERTEX
8
Layer 1
10
127.567001
20
203.803002
70
0
0
VERTEX
8
Layer 1
10
127.351997
20
202.946000
70
0
0
VERTEX
8
Layer 1
10
127.222000
20
202.072001
70
0
0
VERTEX
8
Layer 1
10
127.179001
20
201.190001
70
0
0
VERTEX
8
Layer 1
10
127.222000
20
200.307000
70
0
0
VERTEX
8
Layer 1
10
127.351997
20
199.433001
70
0
0
VERTEX
8
Layer 1
10
127.567001
20
198.576001
70
0
0
VERTEX
8
Layer 1
10
127.863998
20
197.744999
70
0
0
VERTEX
8
Layer 1
10
128.242004
20
196.946000
70
0
0
VERTEX
8
Layer 1
10
128.695999
20
196.188000
70
0
0
VERTEX
8
Layer 1
10
129.222000
20
195.479000
70
0
0
VERTEX
8
Layer 1
10
129.815994
20
194.824000
70
0
0
VERTEX
8
Layer 1
10
130.470001
20
194.230999
70
0
0
SEQEND
8
Layer 1
0
POLYLINE
8
Layer 1
62
10
70
0
10
0.000000
20
0.000000
66
1
0
VERTEX
8
Layer 1
10
149.054993
20
216.222000
70
0
0
VERTEX
8
Layer 1
10
149.149994
20
215.943001
70
0
0
VERTEX
8
Layer 1
10
149.279999
20
215.679001
70
0
0
VERTEX
8
Layer 1
10
149.444000
20
215.433998
70
0
0
VERTEX
8
Layer 1
10
149.638000
20
215.211998
70
0
0
VERTEX
8
Layer 1
10
149.860001
20
215.017998
70
0
0
VERTEX
8
Layer 1
10
150.104996
20
214.854000
70
0
0
VERTEX
8
Layer 1
10
150.369003
20
214.723999
70
0
0
VERTEX
8
Layer 1
10
150.647995
20
214.628998
70
0
0
VERTEX
8
Layer 1
10
150.936996
20
214.571999
70
0
0
VERTEX
8
Layer 1
10
151.231003
20
214.551999
70
0
0
VERTEX
8
Layer 1
10
151.524994
20
214.571999
70
0
0
VERTEX
8
Layer 1
10
151.552002
20
214.577324
70
0
0
VERTEX
8
Layer 1
10
151.813995
20
214.628998
70
0
0
VERTEX
8
Layer 1
10
152.093002
20
214.723999
70
0
0
VERTEX
8
Layer 1
10
152.356995
20
214.854000
70
0
0
VERTEX
8
Layer 1
10
152.602005
20
215.017998
70
0
0
VERTEX
8
Layer 1
10
152.824005
20
215.211998
70
0
0
VERTEX
8
Layer 1
10
153.018005
20
215.433998
70
0
0
VERTEX
8
Layer 1
10
153.182007
20
215.679001
70
0
0
VERTEX
8
Layer 1
10
153.311996
20
215.943001
70
0
0
VERTEX
8
Layer 1
10
153.406998
20
216.222000
70
0
0
VERTEX
8
Layer 1
10
153.415482
20
216.265000
70
0
0
VERTEX
8
Layer 1
10
153.464005
20
216.510998
70
0
0
VERTEX
8
Layer 1
10
153.483994
20
216.805001
70
0
0
VERTEX
8
Layer 1
10
153.464005
20
217.098999
70
0
0
VERTEX
8
Layer 1
10
153.406998
20
217.388001
70
0
0
VERTEX
8
Layer 1
10
153.311996
20
217.667000
70
0
0
VERTEX
8
Layer 1
10
153.182007
20
217.931000
70
0
0
VERTEX
8
Layer 1
10
153.018005
20
218.175999
70
0
0
VERTEX
8
Layer 1
10
152.824005
20
218.397999
70
0
0
VERTEX
8
Layer 1
10
152.602005
20
218.591999
70
0
0
VERTEX
8
Layer 1
10
152.356995
20
218.756001
70
0
0
VERTEX
8
Layer 1
10
152.093002
20
218.885998
70
0
0
VERTEX
8
Layer 1
10
151.813995
20
218.980999
70
0
0
VERTEX
8
Layer 1
10
151.552002
20
219.032673
70
0
0
VERTEX
8
Layer 1
10
151.524994
20
219.037999
70
0
0
VERTEX
8
Layer 1
10
151.231003
20
219.057000
70
0
0
VERTEX
8
Layer 1
10
150.936996
20
219.037999
70
0
0
VERTEX
8
Layer 1
10
150.647995
20
218.980999
70
0
0
VERTEX
8
Layer 1
10
150.369003
20
218.885998
70
0
0
VERTEX
8
Layer 1
10
150.104996
20
218.756001
70
0
0
VERTEX
8
Layer 1
10
149.860001
20
218.591999
70
0
0
VERTEX
8
Layer 1
10
149.638000
20
218.397999
70
0
0
VERTEX
8
Layer 1
10
149.563721
20
218.313000
70
0
0
VERTEX
8
Layer 1
10
149.444000
20
218.175999
70
0
0
VERTEX
8
Layer 1
10
149.279999
20
217.931000
70
0
0
VERTEX
8
Layer 1
10
149.149994
20
217.667000
70
0
0
VERTEX
8
Layer 1
10
149.054993
20
217.388001
70
0
0
VERTEX
8
Layer 1
10
148.998001
20
217.098999
70
0
0
VERTEX
8
Layer 1
10
148.979004
20
216.805001
70
0
0
VERTEX
8
Layer 1
10
148.998001
20
216.510998
70
0
0
VERTEX
8
Layer 1
10
149.046524
20
216.265000
70
0
0
VERTEX
8
Layer 1
10
149.054993
20
216.222000
70
0
0
SEQEND
8
Layer 1
0
POLYLINE
8
Layer 1
62
10
70
0
10
0.000000
20
0.000000
66
1
0
VERTEX
8
Layer 1
10
130.470001
20
133.631001
70
0
0
VERTEX
8
Layer 1
10
131.072006
20
133.184163
70
0
0
VERTEX
8
Layer 1
10
131.179993
20
133.104000
70
0
0
VERTEX
8
Layer 1
10
131.938004
20
132.650002
70
0
0
VERTEX
8
Layer 1
10
132.735992
20
132.272000
70
0
0
VERTEX
8
Layer 1
10
133.567993
20
131.974999
70
0
0
VERTEX
8
Layer 1
10
134.425003
20
131.759999
70
0
0
VERTEX
8
Layer 1
10
135.298996
20
131.631001
70
0
0
VERTEX
8
Layer 1
10
136.182007
20
131.586998
70
0
0
VERTEX
8
Layer 1
10
137.063995
20
131.631001
70
0
0
VERTEX
8
Layer 1
10
137.938004
20
131.759999
70
0
0
VERTEX
8
Layer 1
10
138.794998
20
131.974999
70
0
0
VERTEX
8
Layer 1
10
139.264008
20
132.142418
70
0
0
VERTEX
8
Layer 1
10
139.626999
20
132.272000
70
0
0
VERTEX
8
Layer 1
10
140.425003
20
132.650002
70
0
0
VERTEX
8
Layer 1
10
141.182999
20
133.104000
70
0
0
VERTEX
8
Layer 1
10
141.893005
20
133.631001
70
0
0
VERTEX
8
Layer 1
10
142.546997
20
134.223999
70
0
0
VERTEX
8
Layer 1
10
143.141006
20
134.878998
70
0
0
VERTEX
8
Layer 1
10
143.667007
20
135.588002
70
0
0
VERTEX
8
Layer 1
10
144.121002
20
136.346001
70
0
0
VERTEX
8
Layer 1
10
144.498993
20
137.145001
70
0
0
VERTEX
8
Layer 1
10
144.796005
20
137.975998
70
0
0
VERTEX
8
Layer 1
10
144.912659
20
138.440998
70
0
0
VERTEX
8
Layer 1
10
145.011002
20
138.833001
70
0
0
VERTEX
8
Layer 1
10
145.141006
20
139.706999
70
0
0
VERTEX
8
Layer 1
10
145.184006
20
140.590001
70
0
0
VERTEX
8
Layer 1
10
145.141006
20
141.472000
70
0
0
VERTEX
8
Layer 1
10
145.011002
20
142.345999
70
0
0
VERTEX
8
Layer 1
10
144.796005
20
143.202999
70
0
0
VERTEX
8
Layer 1
10
144.498993
20
144.035000
70
0
0
VERTEX
8
Layer 1
10
144.121002
20
144.833001
70
0
0
VERTEX
8
Layer 1
10
143.667007
20
145.591000
70
0
0
VERTEX
8
Layer 1
10
143.141006
20
146.300999
70
0
0
VERTEX
8
Layer 1
10
142.839462
20
146.633000
70
0
0
VERTEX
8
Layer 1
10
142.546997
20
146.955000
70
0
0
VERTEX
8
Layer 1
10
141.893005
20
147.549000
70
0
0
VERTEX
8
Layer 1
10
141.182999
20
148.074999
70
0
0
VERTEX
8
Layer 1
10
140.425003
20
148.529000
70
0
0
VERTEX
8
Layer 1
10
139.626999
20
148.907000
70
0
0
VERTEX
8
Layer 1
10
139.264008
20
149.037016
70
0
0
VERTEX
8
Layer 1
10
138.794998
20
149.205000
70
0
0
VERTEX
8
Layer 1
10
137.938004
20
149.418999
70
0
0
VERTEX
8
Layer 1
10
137.063995
20
149.549000
70
0
0
VERTEX
8
Layer 1
10
136.182007
20
149.591999
70
0
0
VERTEX
8
Layer 1
10
135.298996
20
149.549000
70
0
0
VERTEX
8
Layer 1
10
134.425003
20
149.418999
70
0
0
VERTEX
8
Layer 1
10
133.567993
20
149.205000
70
0
0
VERTEX
8
Layer 1
10
132.735992
20
148.907000
70
0
0
VERTEX
8
Layer 1
10
131.938004
20
148.529000
70
0
0
VERTEX
8
Layer 1
10
131.179993
20
148.074999
70
0
0
VERTEX
8
Layer 1
10
131.072006
20
147.994988
70
0
0
VERTEX
8
Layer 1
10
130.470001
20
147.549000
70
0
0
VERTEX
8
Layer 1
10
129.815994
20
146.955000
70
0
0
VERTEX
8
Layer 1
10
129.222000
20
146.300999
70
0
0
VERTEX
8
Layer 1
10
128.695999
20
145.591000
70
0
0
VERTEX
8
Layer 1
10
128.242004
20
144.833001
70
0
0
VERTEX
8
Layer 1
10
127.863998
20
144.035000
70
0
0
VERTEX
8
Layer 1
10
127.567001
20
143.202999
70
0
0
VERTEX
8
Layer 1
10
127.351997
20
142.345999
70
0
0
VERTEX
8
Layer 1
10
127.222000
20
141.472000
70
0
0
VERTEX
8
Layer 1
10
127.179001
20
140.590001
70
0
0
VERTEX
8
Layer 1
10
127.222000
20
139.706999
70
0
0
VERTEX
8
Layer 1
10
127.351997
20
138.833001
70
0
0
VERTEX
8
Layer 1
10
127.450340
20
138.440998
70
0
0
VERTEX
8
Layer 1
10
127.567001
20
137.975998
70
0
0
VERTEX
8
Layer 1
10
127.863998
20
137.145001
70
0
0
VERTEX
8
Layer 1
10
128.242004
20
136.346001
70
0
0
VERTEX
8
Layer 1
10
128.695999
20
135.588002
70
0
0
VERTEX
8
Layer 1
10
129.222000
20
134.878998
70
0
0
VERTEX
8
Layer 1
10
129.815994
20
134.223999
70
0
0
VERTEX
8
Layer 1
10
130.470001
20
133.631001
70
0
0
SEQEND
8
Layer 1
0
POLYLINE
8
Layer 1
62
10
70
0
10
0.000000
20
0.000000
66
1
0
VERTEX
8
Layer 1
10
156.315002
20
121.270001
70
0
0
VERTEX
8
Layer 1
10
156.298004
20
121.008999
70
0
0
VERTEX
8
Layer 1
10
156.315002
20
120.746998
70
0
0
VERTEX
8
Layer 1
10
156.365997
20
120.489998
70
0
0
VERTEX
8
Layer 1
10
156.449997
20
120.242001
70
0
0
VERTEX
8
Layer 1
10
156.565506
20
120.008999
70
0
0
VERTEX
8
Layer 1
10
156.565994
20
120.008000
70
0
0
VERTEX
8
Layer 1
10
156.710999
20
119.790001
70
0
0
VERTEX
8
Layer 1
10
156.884003
20
119.592999
70
0
0
VERTEX
8
Layer 1
10
157.080994
20
119.419999
70
0
0
VERTEX
8
Layer 1
10
157.298996
20
119.275002
70
0
0
VERTEX
8
Layer 1
10
157.533997
20
119.159001
70
0
0
VERTEX
8
Layer 1
10
157.695999
20
119.104130
70
0
0
VERTEX
8
Layer 1
10
157.781998
20
119.075001
70
0
0
VERTEX
8
Layer 1
10
158.039001
20
119.022999
70
0
0
VERTEX
8
Layer 1
10
158.300003
20
119.006001
70
0
0
VERTEX
8
Layer 1
10
158.561005
20
119.022999
70
0
0
VERTEX
8
Layer 1
10
158.817993
20
119.075001
70
0
0
VERTEX
8
Layer 1
10
159.065994
20
119.159001
70
0
0
VERTEX
8
Layer 1
10
159.300995
20
119.275002
70
0
0
VERTEX
8
Layer 1
10
159.518997
20
119.419999
70
0
0
VERTEX
8
Layer 1
10
159.716003
20
119.592999
70
0
0
VERTEX
8
Layer 1
10
159.744003
20
119.624886
70
0
0
VERTEX
8
Layer 1
10
159.889008
20
119.790001
70
0
0
VERTEX
8
Layer 1
10
160.033997
20
120.008000
70
0
0
VERTEX
8
Layer 1
10
160.149994
20
120.242001
70
0
0
VERTEX
8
Layer 1
10
160.233994
20
120.489998
70
0
0
VERTEX
8
Layer 1
10
160.285004
20
120.746998
70
0
0
VERTEX
8
Layer 1
10
160.302994
20
121.008999
70
0
0
VERTEX
8
Layer 1
10
160.285004
20
121.270001
70
0
0
VERTEX
8
Layer 1
10
160.233994
20
121.527001
70
0
0
VERTEX
8
Layer 1
10
160.149994
20
121.775002
70
0
0
VERTEX
8
Layer 1
10
160.033997
20
122.009999
70
0
0
VERTEX
8
Layer 1
10
160.002731
20
122.057000
70
0
0
VERTEX
8
Layer 1
10
159.889008
20
122.228001
70
0
0
VERTEX
8
Layer 1
10
159.744003
20
122.393116
70
0
0
VERTEX
8
Layer 1
10
159.716003
20
122.425000
70
0
0
VERTEX
8
Layer 1
10
159.518997
20
122.597000
70
0
0
VERTEX
8
Layer 1
10
159.300995
20
122.743000
70
0
0
VERTEX
8
Layer 1
10
159.065994
20
122.859002
70
0
0
VERTEX
8
Layer 1
10
158.817993
20
122.943001
70
0
0
VERTEX
8
Layer 1
10
158.561005
20
122.994000
70
0
0
VERTEX
8
Layer 1
10
158.300003
20
123.010998
70
0
0
VERTEX
8
Layer 1
10
158.039001
20
122.994000
70
0
0
VERTEX
8
Layer 1
10
157.781998
20
122.943001
70
0
0
VERTEX
8
Layer 1
10
157.695999
20
122.913872
70
0
0
VERTEX
8
Layer 1
10
157.533997
20
122.859002
70
0
0
VERTEX
8
Layer 1
10
157.298996
20
122.743000
70
0
0
VERTEX
8
Layer 1
10
157.080994
20
122.597000
70
0
0
VERTEX
8
Layer 1
10
156.884003
20
122.425000
70
0
0
VERTEX
8
Layer 1
10
156.710999
20
122.228001
70
0
0
VERTEX
8
Layer 1
10
156.597260
20
122.057000
70
0
0
VERTEX
8
Layer 1
10
156.565994
20
122.009999
70
0
0
VERTEX
8
Layer 1
10
156.449997
20
121.775002
70
0
0
VERTEX
8
Layer 1
10
156.365997
20
121.527001
70
0
0
VERTEX
8
Layer 1
10
156.315002
20
121.270001
70
0
0
SEQEND
8
Layer 1
0
POLYLINE
8
Layer 1
62
10
70
0
10
0.000000
20
0.000000
66
1
0
VERTEX
8
Layer 1
10
157.602005
20
151.018999
70
0
0
VERTEX
8
Layer 1
10
147.597000
20
151.018999
70
0
0
VERTEX
8
Layer 1
10
147.597000
20
142.014000
70
0
0
VERTEX
8
Layer 1
10
157.602005
20
142.014000
70
0
0
VERTEX
8
Layer 1
10
157.602005
20
151.018999
70
0
0
VERTEX
8
Layer 1
10
157.602005
20
151.018999
70
0
0
SEQEND
8
Layer 1
 0 
ENDSEC
 0 
EOF